<?xml version="1.0" standalone="no"?>
<!DOCTYPE svg PUBLIC "-//W3C//DTD SVG 1.1//EN" "http://www.w3.org/Graphics/SVG/1.1/DTD/svg11.dtd" >
<svg xmlns="http://www.w3.org/2000/svg" xmlns:xlink="http://www.w3.org/1999/xlink" version="1.1">
<metadata></metadata>
<defs>
<font id="okta_neueblack_italic" horiz-adv-x="1501" >
<font-face units-per-em="2048" ascent="1536" descent="-512" />
<missing-glyph horiz-adv-x="620" />
<glyph horiz-adv-x="0" />
<glyph horiz-adv-x="682" />
<glyph unicode=" "  horiz-adv-x="620" />
<glyph unicode="&#x09;" horiz-adv-x="620" />
<glyph unicode="&#xa0;" horiz-adv-x="620" />
<glyph unicode="!" horiz-adv-x="491" d="M6 160q11 71 74.5 124.5t138.5 53.5q74 0 120.5 -53.5t35.5 -124.5q-10 -77 -74 -131t-139 -54q-76 0 -122 54t-34 131zM63 467l156 967h348l-155 -967h-349z" />
<glyph unicode="&#x22;" horiz-adv-x="757" d="M152 926l57 508h285l-113 -508h-229zM502 926l57 508h285l-111 -508h-231z" />
<glyph unicode="#" horiz-adv-x="1800" d="M2 131l139 320h267l100 239h-272l145 326h268l133 313h320l-133 -313h268l133 313h320l-134 -313h263l-144 -324h-258l-102 -239h266l-141 -322h-262l-131 -305h-320l131 305h-270l-129 -305h-320l129 305h-266zM727 451l268 2l103 239l-271 -2z" />
<glyph unicode="$" horiz-adv-x="1302" d="M59 348l344 90q27 -134 154 -157l49 313q-37 11 -45 14q-59 17 -102 33.5t-102 51t-94.5 74.5t-55.5 105.5t-8 143.5q20 122 99.5 219t194.5 152t248 65l21 125h133l-21 -127q168 -18 272 -111.5t126 -236.5l-328 -90q-15 119 -115 149l-49 -313q58 -12 109 -33 q61 -21 106.5 -42.5t92 -55.5t74 -73.5t39.5 -97t1 -126.5q-19 -124 -99.5 -220t-199 -150.5t-260.5 -67.5l-20 -125h-134l21 125q-184 15 -301.5 114t-149.5 252zM526 1014q-8 -56 24.5 -85.5t100.5 -49.5l45 284q-67 -15 -114 -56.5t-56 -92.5zM690 281q72 11 118.5 48 t55.5 99q8 52 -25 79.5t-106 51.5z" />
<glyph unicode="%" horiz-adv-x="1759" d="M193 1073q24 158 128.5 259.5t260.5 101.5q148 0 224.5 -102.5t51.5 -258.5q-25 -160 -130 -261t-259 -101q-149 0 -225 102.5t-51 259.5zM317 -41l936 1516h252l-936 -1516h-252zM399 1073q-9 -63 18 -102t87 -39t99 39t48 102q9 64 -17.5 102.5t-86.5 38.5t-99.5 -39 t-48.5 -102zM967 362q26 159 130 260t259 101q148 0 225.5 -103t52.5 -258q-25 -159 -130.5 -260.5t-260.5 -101.5q-149 0 -224.5 102t-51.5 260zM1176 362q-11 -63 15.5 -102t86.5 -39t100 39t49 102q8 64 -18.5 103t-85.5 39q-60 0 -99 -39.5t-48 -102.5z" />
<glyph unicode="&#x26;" horiz-adv-x="1435" d="M18 328q11 73 43 136.5t83.5 117t108 96.5t132.5 88q-136 199 -109 358q10 68 47 131t95 113t143.5 80.5t183.5 30.5q93 0 166.5 -30.5t116.5 -80t61.5 -110.5t8.5 -125q-19 -118 -97.5 -215.5t-220.5 -196.5l148 -197q46 58 76 123l354 -2q-105 -221 -244 -379l197 -266 h-361l-51 66q-197 -144 -440 -144q-99 0 -185 27t-149 77t-93 128.5t-14 173.5zM375 369q-9 -60 33 -100t114 -40q114 0 201 76l-188 248q-48 -34 -75.5 -56.5t-53 -57t-31.5 -70.5zM571 1108q-7 -39 12 -81.5t62 -108.5q77 61 112.5 105.5t41.5 86.5q8 48 -14.5 79.5 t-79.5 31.5q-49 0 -88.5 -33.5t-45.5 -79.5z" />
<glyph unicode="'" horiz-adv-x="407" d="M152 926l57 508h285l-113 -508h-229z" />
<glyph unicode="(" horiz-adv-x="557" d="M90 -190q-79 378 2 895q81 511 285 919h336q-203 -407 -285 -922q-81 -516 -2 -892h-336z" />
<glyph unicode=")" horiz-adv-x="561" d="M-90 -190q200 385 280 892q81 513 7 922h335q37 -202 36.5 -440t-38.5 -479q-79 -500 -284 -895h-336z" />
<glyph unicode="*" horiz-adv-x="743" d="M154 1051l24 157l193 -14l-84 160l149 80l53 -177l113 175l125 -78l-135 -162l194 18l-24 -157l-184 10l75 -156l-149 -80l-53 172l-115 -174l-125 80l135 160z" />
<glyph unicode="+" horiz-adv-x="976" d="M88 549l45 285h262l43 262h289l-43 -262h262l-45 -285h-262l-43 -262h-289l43 262h-262z" />
<glyph unicode="," horiz-adv-x="468" d="M-117 -350l174 483h308l-195 -483h-287z" />
<glyph unicode="-" horiz-adv-x="892" d="M45 408l49 301h768l-47 -301h-770z" />
<glyph unicode="." horiz-adv-x="491" d="M6 160q12 71 75.5 124.5t137.5 53.5q75 0 121.5 -53.5t34.5 -124.5q-12 -77 -74.5 -131t-136.5 -54q-77 0 -123.5 53.5t-34.5 131.5z" />
<glyph unicode="/" horiz-adv-x="929" d="M-45 -164l827 1864h275l-828 -1864h-274z" />
<glyph unicode="0" horiz-adv-x="1323" d="M100 717q34 214 127 374t243 251.5t339 91.5q175 0 295.5 -90.5t168 -253.5t13.5 -373q-34 -214 -125.5 -374t-240 -251.5t-336.5 -91.5q-176 0 -298 90.5t-171 253.5t-15 373zM438 717q-30 -182 19 -285.5t178 -103.5q125 0 204 103t109 286q30 182 -18 285.5 t-174 103.5t-207 -103.5t-111 -285.5z" />
<glyph unicode="1" horiz-adv-x="733" d="M98 975l47 301q196 0 240 158h348l-225 -1434h-348l162 1030q-89 -55 -224 -55z" />
<glyph unicode="2" horiz-adv-x="1144" d="M-39 0l43 266l473 359q92 70 141 109.5t97 86.5t69.5 86t28.5 82q12 74 -27.5 118t-111.5 44q-69 0 -128 -45.5t-81 -126.5l-324 41q64 210 222 327t368 117q218 0 334.5 -120t83.5 -332q-13 -78 -48 -149.5t-93 -138t-124 -125t-157 -126.5l-229 -178h546l-45 -293z" />
<glyph unicode="3" horiz-adv-x="1171" d="M16 381l351 45q3 -68 49 -110t119 -42q76 0 136.5 42.5t71.5 117.5q12 78 -34.5 130t-159.5 52h-51l39 240h41q106 0 162 46.5t67 107.5q10 71 -25.5 112t-101.5 41q-64 0 -113 -34t-69 -93l-330 41q46 170 193.5 278.5t363.5 108.5q212 0 334 -120.5t94 -292.5 q-18 -112 -89 -188.5t-175 -108.5q103 -29 163.5 -122t41.5 -216q-32 -200 -188 -322.5t-421 -122.5q-207 0 -335.5 114.5t-133.5 295.5z" />
<glyph unicode="4" horiz-adv-x="1239" d="M8 281l43 276l441 877h358l-444 -877h309l78 498h331l-77 -498h170l-43 -276h-173l-43 -281h-331l43 281h-662z" />
<glyph unicode="5" horiz-adv-x="1146" d="M16 346l328 88q3 -67 53.5 -112.5t122.5 -45.5q94 0 152.5 49.5t70.5 129.5q15 84 -34 137t-131 53q-59 0 -110 -28t-81 -76l-278 137l167 756h844l-49 -304h-559l-55 -247q100 49 223 49q92 0 172.5 -33.5t137 -93.5t82.5 -149.5t11 -194.5q-31 -218 -188.5 -355 t-394.5 -137q-204 0 -337 105.5t-147 271.5z" />
<glyph unicode="6" horiz-adv-x="1146" d="M43 479q16 105 80 240.5t152.5 265.5t181.5 245t180 204h389q-318 -338 -473 -578q72 35 154 35q128 1 223.5 -53.5t139.5 -153.5t24 -223q-36 -219 -202.5 -355.5t-406.5 -136.5q-231 0 -355 143.5t-87 366.5zM371 442q-6 -72 42 -119t126 -47q87 0 153 59t70 144 q6 72 -42 118t-126 46q-89 0 -154 -56.5t-69 -144.5z" />
<glyph unicode="7" horiz-adv-x="1075" d="M84 0l672 1130h-631l49 304h997l-49 -304l-665 -1130h-373z" />
<glyph unicode="8" horiz-adv-x="1193" d="M43 410q19 124 106.5 214.5t208.5 129.5q-93 37 -142 117.5t-32 185.5q27 172 180.5 289.5t380.5 117.5q108 0 197 -33.5t144 -89.5t79.5 -130t12.5 -154q-17 -109 -88 -188t-179 -115q109 -35 169.5 -127.5t39.5 -216.5q-15 -91 -61 -170t-120 -139.5t-182.5 -95 t-238.5 -34.5q-152 0 -268.5 61.5t-170.5 162t-36 215.5zM401 444q-13 -79 33 -124.5t123 -45.5q78 0 138 45.5t73 124.5q12 75 -33 119.5t-125 44.5q-79 0 -138 -44.5t-71 -119.5zM514 1016q-10 -67 28.5 -107.5t110.5 -40.5q70 0 121.5 40.5t61.5 107.5q9 65 -29.5 106 t-108.5 41t-121.5 -41t-62.5 -106z" />
<glyph unicode="9" horiz-adv-x="1142" d="M115 942q34 217 202 354.5t402 137.5q151 0 260.5 -63.5t158.5 -179.5t25 -265q-62 -390 -551 -926h-381q274 281 431 530q-77 -36 -162 -36q-198 0 -307.5 127.5t-77.5 320.5zM446 940q-12 -79 35 -129.5t129 -50.5q83 0 148.5 51t77.5 129q12 81 -35 133.5t-131 52.5 t-148 -52.5t-76 -133.5z" />
<glyph unicode=":" horiz-adv-x="464" d="M6 158q9 66 68 115t129 49q69 0 111.5 -49t33.5 -115q-12 -72 -70.5 -122t-127.5 -50q-71 0 -113.5 50t-30.5 122zM123 895q11 65 69.5 114.5t126.5 49.5q70 0 113.5 -49.5t32.5 -114.5q-12 -73 -69.5 -122.5t-127.5 -49.5q-71 0 -114 49.5t-31 122.5z" />
<glyph unicode=";" horiz-adv-x="495" d="M-115 -350l172 483h308l-195 -483h-285zM154 895q11 65 69.5 114.5t126.5 49.5q70 0 113.5 -49.5t32.5 -114.5q-10 -72 -68.5 -122t-128.5 -50q-71 0 -113 49.5t-32 122.5z" />
<glyph unicode="&#x3c;" horiz-adv-x="899" d="M113 559l34 232l742 311l-43 -268l-422 -166l371 -164l-41 -252z" />
<glyph unicode="=" horiz-adv-x="1157" d="M76 414l33 219h976l-32 -219h-977zM129 754l35 217h977l-35 -217h-977z" />
<glyph unicode="&#x3e;" horiz-adv-x="897" d="M63 252l41 270l424 166l-370 162l41 252l641 -307l-35 -230z" />
<glyph unicode="?" horiz-adv-x="1253" d="M199 1112q73 154 224.5 249t348.5 95q143 0 254.5 -53.5t169 -155.5t37.5 -231q-11 -69 -42 -126.5t-72.5 -97t-90 -73.5t-96 -64t-87.5 -60t-68.5 -69t-35.5 -84h-346q14 85 46 151t72 106t86 70.5t91 53.5t82.5 46.5t64 57.5t33.5 79q10 62 -30 104.5t-125 42.5 q-69 0 -123 -37t-82 -100zM336 160q12 71 75.5 124.5t137.5 53.5q75 0 121.5 -53.5t34.5 -124.5q-10 -77 -73 -131t-138 -54q-77 0 -123.5 53.5t-34.5 131.5z" />
<glyph unicode="@" horiz-adv-x="1847" d="M51 446q19 138 76 266t147 232.5t204 182t254 120.5t290 43q176 0 327.5 -63.5t255 -173.5t150.5 -268.5t21 -338.5q-41 -255 -183 -401q-52 -52 -130 -77t-155.5 -18.5t-145 54.5t-95.5 131q-129 -98 -285 -98q-165 0 -258.5 119t-68.5 290q25 182 149 296t293 114 q116 0 219 -80l10 72h244l-74 -520q-6 -47 6.5 -77.5t34.5 -40t46 -7.5t42 16q76 61 101 227q38 271 -110.5 438t-426.5 167q-176 0 -324 -75.5t-243.5 -213.5t-120.5 -316q-37 -270 104.5 -436t411.5 -166q137 0 277 64l80 -219q-190 -86 -390 -86q-242 0 -421 113 t-260.5 305.5t-51.5 424.5zM692 446q-11 -85 33.5 -142.5t124.5 -57.5q79 0 142 58t75 142t-33.5 142.5t-124.5 58.5q-82 0 -144 -58.5t-73 -142.5z" />
<glyph unicode="A" horiz-adv-x="1527" d="M-72 0l799 1434h360l355 -1434h-365l-47 215h-596l-115 -215h-391zM594 528h373l-109 506h-6z" />
<glyph unicode="B" horiz-adv-x="1302" d="M49 0l227 1434h584q222 0 342 -111q96 -89 96 -227q0 -34 -6 -72q-28 -185 -180 -289q72 -55 106 -139q25 -60 25 -130q0 -28 -4 -58q-32 -195 -181 -301.5t-378 -106.5h-631zM442 293h277q74 0 125.5 39t60.5 106q2 14 2 27q1 51 -31 83q-40 40 -112 40h-277zM528 850 h248q73 0 122.5 38.5t59.5 106.5q2 14 2 27q0 49 -30 80q-38 39 -109 39h-248z" />
<glyph unicode="C" d="M98 717q25 153 100.5 288.5t186.5 234.5t258 156.5t307 57.5q198 0 357.5 -105.5t224.5 -277.5l-336 -158q-36 88 -116 140.5t-187 52.5q-161 0 -289 -113.5t-153 -275.5q-6 -36 -6 -69q0 -118 72 -206q92 -114 253 -114q109 0 207 53.5t160 144.5l286 -157 q-127 -186 -297.5 -287.5t-408.5 -101.5q-143 0 -269 58.5t-211 156.5q-85 97 -124 235q-24 85 -24 175q0 55 9 112z" />
<glyph unicode="D" d="M49 0l227 1434l574 2q106 0 205 -29.5t183.5 -89.5t143.5 -144q58 -83 82 -201q12 -62 12 -129q0 -60 -10 -124q-27 -171 -100.5 -308t-180.5 -226.5t-242 -137t-288 -47.5h-606zM451 336h229q172 0 291.5 95t150.5 288q7 43 7 81q1 50 -11 92q-20 75 -68.5 119.5 t-115 66.5t-150.5 22l-213 -2z" />
<glyph unicode="E" horiz-adv-x="1230" d="M51 0l225 1434h1037l-49 -306h-689l-40 -260h673l-45 -297h-674l-43 -266h691l-50 -305h-1036z" />
<glyph unicode="F" horiz-adv-x="1239" d="M51 0l225 1434h1033l-47 -306h-691l-41 -278h666l-49 -301h-666l-86 -549h-344z" />
<glyph unicode="G" horiz-adv-x="1558" d="M98 717q33 203 151.5 371t303.5 267t399 99q212 0 356.5 -97.5t209.5 -266.5l-334 -164q-84 186 -289 186q-165 0 -294.5 -114.5t-154.5 -280.5q-6 -39 -6 -75q0 -128 73 -220q93 -117 259 -117q215 0 350 150l11 75h-271l37 252h631l-37 -252l-12 -77 q-97 -226 -300 -349.5t-462 -123.5q-152 0 -279.5 58t-210.5 157t-119 235q-22 82 -22 169q0 58 10 118z" />
<glyph unicode="H" horiz-adv-x="1554" d="M51 0l225 1434h349l-88 -557h598l86 557h350l-225 -1434h-351l88 549h-598l-86 -549h-348z" />
<glyph unicode="I" horiz-adv-x="606" d="M51 0l225 1434h349l-226 -1434h-348z" />
<glyph unicode="J" horiz-adv-x="1159" d="M-4 63l211 295q65 -43 164 -43q77 0 140.5 28.5t106 77.5t69 110.5t36.5 132.5l123 770h348l-133 -838q-45 -295 -242.5 -455.5t-501.5 -160.5q-183 0 -321 83z" />
<glyph unicode="K" horiz-adv-x="1462" d="M51 0l225 1434h349l-88 -553h149l467 553h449l-633 -713l409 -721h-397l-317 553h-179l-86 -553h-348z" />
<glyph unicode="L" horiz-adv-x="1185" d="M51 0l225 1434h345l-177 -1117h686l-49 -317h-1030z" />
<glyph unicode="M" horiz-adv-x="1908" d="M51 0l225 1434h375l320 -791l549 791h405l-225 -1434h-348l133 844l-443 -613h-262l-250 611l-131 -842h-348z" />
<glyph unicode="N" horiz-adv-x="1562" d="M51 0l225 1434h363l453 -908l139 908h348l-225 -1434h-363l-452 907l-140 -907h-348z" />
<glyph unicode="O" horiz-adv-x="1603" d="M94 520q-6 40 -6 83q0 56 10 114q25 152 100 287t185.5 234.5t258 157.5t308.5 58q97 0 187 -26.5t163 -74t132 -115t93.5 -149t48.5 -175.5q6 -40 6 -83q0 -56 -11 -114q-25 -153 -97 -287t-180.5 -234.5t-257 -158t-317.5 -57.5q-97 0 -187 26.5t-163 74t-132 115 t-93 149t-48 175.5zM446 717q-6 -39 -6 -75q0 -120 72 -208q94 -115 258 -115t293.5 115t157.5 283q6 37 6 71q0 122 -73 212q-93 114 -257 114q-165 0 -294 -114.5t-157 -282.5z" />
<glyph unicode="P" horiz-adv-x="1294" d="M51 0l225 1434h617q96 0 179.5 -32.5t143.5 -91.5q60 -60 88 -152q17 -57 18 -122q0 -40 -7 -82q-36 -225 -194.5 -352t-379.5 -127h-272l-74 -475h-344zM516 770h250q86 0 144.5 51t70.5 133q3 18 3 35q0 59 -34 100q-42 52 -127 52h-250z" />
<glyph unicode="Q" horiz-adv-x="1611" d="M98 717q25 152 100.5 287t186.5 234.5t258 157.5t307 58q141 0 266 -58.5t210.5 -156.5t125.5 -235q24 -86 24 -176q0 -55 -9 -111q-44 -279 -235.5 -480.5t-473.5 -246.5q99 -18 227 -18q153 0 349 26l-52 -320q-404 30 -714 171t-463 376q-72 101 -101 227 q-16 71 -16 145q0 59 10 120zM451 717q-6 -36 -6 -69q0 -118 72 -206q92 -114 253 -114q162 0 291.5 113.5t155.5 275.5q6 35 6 68q0 119 -74 207q-94 114 -256 114q-159 0 -288 -113.5t-154 -275.5z" />
<glyph unicode="R" horiz-adv-x="1329" d="M51 0l225 1434h631q96 0 180 -31.5t146.5 -90t90.5 -150.5q17 -57 18 -122q0 -41 -7 -84q-24 -155 -108 -266t-213 -166l205 -524h-371l-164 477h-213l-76 -477h-344zM516 772h266q79 0 137 50t70 128q3 18 3 34q0 56 -32 96q-41 50 -120 50h-267z" />
<glyph unicode="S" horiz-adv-x="1204" d="M25 348l348 94q10 -70 65.5 -110.5t139.5 -40.5t139 35.5t63 93.5q6 32 -8.5 56.5t-47.5 41t-70 28.5t-89 26q-35 9 -53 14q-64 18 -114 38.5t-106.5 57.5t-91 81.5t-52.5 113.5q-10 38 -9 81q0 34 6 70q28 185 195.5 307.5t400.5 122.5q195 0 315 -95.5t144 -262.5 l-328 -90q-29 143 -176 143q-82 0 -136 -39.5t-62 -95.5q-4 -26 6.5 -48t28 -36.5t51.5 -29.5t62.5 -24t74.5 -23q5 -1 8 -2l7.5 -2.5t8.5 -2.5q71 -20 116.5 -36t111 -51.5t101.5 -77.5t56 -111q12 -41 13 -88q0 -32 -6 -66q-31 -201 -198 -320.5t-413 -119.5 q-202 0 -338.5 100t-162.5 268z" />
<glyph unicode="T" horiz-adv-x="1306" d="M123 1130l47 304h1255l-47 -304h-454l-179 -1130h-346l181 1130h-457z" />
<glyph unicode="U" d="M125 592l133 842h348l-121 -775q-9 -42 -9 -82q0 -25 4 -49q9 -62 33.5 -109.5t78.5 -75.5t131 -28q145 0 232.5 97.5t109.5 246.5l123 775h348l-133 -842q-44 -287 -240.5 -449.5t-492.5 -162.5q-131 0 -242 47.5t-184.5 128.5t-105.5 195q-20 71 -21 146q0 47 8 95z " />
<glyph unicode="V" horiz-adv-x="1454" d="M156 1434h360l189 -1024l495 1024h393l-739 -1434h-412z" />
<glyph unicode="W" horiz-adv-x="2181" d="M160 1434h352l115 -955l434 955h305l174 -953l391 953h381l-649 -1434h-342l-170 901l-422 -901h-360z" />
<glyph unicode="X" horiz-adv-x="1402" d="M-53 0l553 717l-310 717h394l192 -473l307 473h424l-532 -715l325 -719h-389l-215 457l-317 -457h-432z" />
<glyph unicode="Y" horiz-adv-x="1380" d="M156 1434h376l207 -535l348 535h433l-648 -867l-86 -567h-348l86 567z" />
<glyph unicode="Z" horiz-adv-x="1218" d="M-2 0l49 297l741 825h-612l47 312h1061l-49 -297l-741 -826h641l-48 -311h-1089z" />
<glyph unicode="[" horiz-adv-x="608" d="M-49 -190l287 1814h526l-41 -268h-213l-203 -1278h211l-41 -268h-526z" />
<glyph unicode="\" horiz-adv-x="1519" d="M250 1700h274l828 -1864h-275z" />
<glyph unicode="]" horiz-adv-x="606" d="M-88 -190l41 268h209l203 1278h-207l41 268h522l-287 -1814h-522z" />
<glyph unicode="^" horiz-adv-x="972" d="M139 999l426 639h197l227 -639h-250l-114 328l-215 -328h-271z" />
<glyph unicode="_" horiz-adv-x="1255" d="M-27 -260l43 260h1065l-43 -260h-1065z" />
<glyph unicode="`" horiz-adv-x="417" d="M154 1481h260l110 -299h-215z" />
<glyph unicode="a" horiz-adv-x="1292" d="M66 508q36 226 189.5 375t358.5 149q191 0 289 -141l19 123h331l-159 -1014h-332l18 115q-127 -133 -329 -133q-127 0 -223 68q-97 68 -141 190q-29 80 -29 171q0 47 8 97zM389 508q-4 -25 -4 -47q0 -71 41 -125q54 -70 149 -70q98 0 174 68t93 174q5 26 5 51 q0 69 -41 121q-55 70 -153 70q-95 0 -170 -69t-94 -173z" />
<glyph unicode="b" horiz-adv-x="1294" d="M39 0l244 1536h331l-102 -643q145 139 324 139q128 0 226 -68t144 -189q31 -81 30 -172q0 -46 -7 -95q-35 -231 -182 -378.5t-367 -147.5q-194 0 -291 139l-18 -121h-332zM451 508q-4 -25 -4 -48q0 -73 41 -125q54 -69 151 -69q95 0 168 69t88 173q4 26 4 50 q0 71 -38 123q-51 69 -146 69q-96 0 -172.5 -69.5t-91.5 -172.5z" />
<glyph unicode="c" horiz-adv-x="1073" d="M61 508q17 111 73.5 211t139.5 173t193 116t229 43q133 0 240.5 -60.5t167.5 -163.5l-289 -190q-22 48 -66 75.5t-102 28.5h-3q-94 1 -168 -65t-91 -170q-3 -23 -3 -44q0 -72 39 -122q51 -66 146 -66h8q55 0 109 27q58 29 90 78l227 -189q-92 -101 -218 -160t-259 -59 q-108 0 -202 42.5t-157 114t-92 171.5q-18 63 -18 130q0 39 6 79z" />
<glyph unicode="d" horiz-adv-x="1292" d="M66 508q37 226 191 375t357 149q188 0 289 -141l103 645h331l-243 -1536h-332l20 121q-136 -139 -327 -139q-129 0 -226.5 68.5t-141.5 189.5q-29 79 -29 170q0 48 8 98zM391 508q-4 -25 -4 -48q0 -73 41 -125q54 -69 150 -69t172.5 69.5t91.5 172.5q5 26 5 51 q0 69 -41 121q-55 70 -151 70q-97 0 -172 -69t-92 -173z" />
<glyph unicode="e" horiz-adv-x="1206" d="M72 535q15 100 67 192.5t130.5 164.5t189.5 115.5t235 43.5q216 0 340 -148q110 -130 109 -332q0 -28 -2 -57q-2 -37 -17 -98h-762q12 -83 70 -129.5t137 -46.5q71 0 136 26.5t110 71.5l195 -168q-90 -96 -216 -148q-121 -50 -256 -49h-10q-109 1 -202.5 44.5 t-155.5 117.5q-63 75 -90 179q-16 61 -16 126q0 47 8 95zM397 625h459q-16 86 -72 129t-131 43q-78 0 -147.5 -43.5t-108.5 -128.5z" />
<glyph unicode="f" horiz-adv-x="888" d="M76 729l45 285h207l16 100q32 212 159 324t333 112q93 0 198 -30l-47 -299q-55 22 -110 22q-79 0 -136.5 -42t-70.5 -126l-11 -61h275l-45 -285h-275l-114 -729h-332l115 729h-207z" />
<glyph unicode="g" horiz-adv-x="1294" d="M-49 -276l250 188q100 -135 264 -135q47 0 94.5 16.5t91.5 49t77 87.5t44 125l10 62q-132 -135 -321 -135q-100 0 -182.5 40.5t-135 110t-73.5 167.5q-12 54 -12 112q0 47 8 96q37 228 194 376t365 148q91 0 163 -36.5t117 -102.5l19 121h331l-149 -936 q-19 -122 -65.5 -221.5t-110.5 -167t-144 -113.5t-165.5 -67t-176.5 -21q-165 0 -298.5 65t-194.5 171zM391 508q-3 -23 -3 -45q0 -74 40 -128q52 -69 143 -69q100 0 178 69t93 173q5 26 5 51q0 70 -41 121q-55 70 -151 70q-97 0 -172 -69t-92 -173z" />
<glyph unicode="h" horiz-adv-x="1275" d="M39 0l244 1536h329l-100 -631q124 121 303 121q189 0 297 -138q81 -104 81 -254q0 -50 -9 -106l-84 -528h-332l80 502q6 37 6 68q0 70 -29 114q-42 64 -135 64q-91 0 -154.5 -64.5t-84.5 -173.5l-82 -510h-330z" />
<glyph unicode="i" horiz-adv-x="540" d="M25 0l161 1014h330l-162 -1014h-329zM221 1337q12 71 74 122.5t137 51.5q74 0 119 -52q36 -41 36 -93q0 -14 -3 -29q-12 -76 -73.5 -129t-135.5 -53t-120 53q-36 42 -36 99q0 14 2 30z" />
<glyph unicode="j" horiz-adv-x="575" d="M-258 -487l47 297q43 -15 82 -15q160 0 182 158l170 1061h330l-180 -1135q-61 -389 -461 -389q-76 0 -170 23zM254 1309q0 78 64.5 140t146.5 62q67 0 111.5 -43.5t44.5 -105.5q0 -84 -65.5 -145.5t-147.5 -61.5q-66 0 -110 44t-44 110z" />
<glyph unicode="k" horiz-adv-x="1259" d="M41 0l242 1536h327l-137 -858h123l311 336h412l-483 -494l333 -520h-385l-221 367h-137l-57 -367h-328z" />
<glyph unicode="l" horiz-adv-x="698" d="M98 375l185 1161h331l-176 -1098q-2 -15 -2 -28q0 -51 28 -81q34 -38 107 -38q44 0 76 14l-47 -287q-102 -26 -176 -26q-184 0 -270 99q-64 74 -64 194q0 42 8 90z" />
<glyph unicode="m" horiz-adv-x="2000" d="M37 0l162 1014h331l-18 -113q138 131 319 131q190 0 304 -168q162 168 401 168q205 0 308 -133q75 -97 75 -250q0 -57 -10 -121l-84 -528h-334l80 500q6 37 6 69q-1 70 -29 118q-42 69 -133 69t-156.5 -71t-82.5 -185l-80 -500h-332l80 500q5 34 5 64q1 74 -29 123 q-42 69 -132 69t-155.5 -74t-83.5 -186l-80 -496h-332z" />
<glyph unicode="n" horiz-adv-x="1275" d="M37 0l162 1014h331l-18 -113q134 131 305 131q91 0 166.5 -35t126.5 -99q52 -64 72 -160q11 -51 10 -107q0 -49 -8 -103l-84 -528h-332l78 500q6 38 6 70q0 71 -28 117q-42 67 -134 67q-94 0 -159.5 -70.5t-84.5 -187.5l-77 -496h-332z" />
<glyph unicode="o" horiz-adv-x="1236" d="M70 508q38 240 217 391.5t418 151.5q155 0 270 -75.5t165 -199.5q34 -86 33 -181q0 -42 -6 -87q-38 -239 -214 -388t-421 -149q-105 0 -198 40.5t-157.5 110.5t-94.5 172q-19 63 -19 131q0 41 7 83zM399 506q-3 -22 -4 -42q-1 -72 41 -124q52 -68 144 -68h3q89 0 163 66 q74 68 92 168q3 22 3 43q0 73 -41 125q-53 66 -145 67h-5q-90 1 -162 -65q-74 -68 -89 -170z" />
<glyph unicode="p" horiz-adv-x="1294" d="M-43 -512l242 1526h333l-20 -121q146 139 324 139q130 0 228 -68.5t143 -189.5q30 -80 30 -172q0 -46 -8 -96q-35 -229 -183.5 -376.5t-365.5 -147.5q-190 0 -291 137l-100 -631h-332zM451 506q-4 -25 -4 -48q0 -72 41 -124q54 -68 151 -68q96 0 168.5 68.5t87.5 173.5 q4 26 4 49q0 71 -38 123q-51 70 -146 70q-96 0 -172.5 -70t-91.5 -174z" />
<glyph unicode="q" horiz-adv-x="1294" d="M66 506q37 226 190.5 376t355.5 150q187 0 293 -139l19 121h331l-241 -1526h-332l100 631q-137 -137 -327 -137q-197 0 -311 151q-86 115 -86 272q0 49 8 101zM391 506q-4 -24 -4 -46q0 -72 42 -125q55 -69 151 -69q95 0 171 69t91 171q5 27 5 52q0 71 -41 122 q-55 70 -151 70q-97 0 -172 -69t-92 -175z" />
<glyph unicode="r" horiz-adv-x="874" d="M39 0l160 1014h331l-20 -127q136 145 401 145h11l-56 -346q-62 41 -147 41q-105 0 -182 -77.5t-97 -205.5l-69 -444h-332z" />
<glyph unicode="s" horiz-adv-x="1046" d="M12 256l297 88q14 -57 59 -89t117 -32q62 0 105.5 26t50.5 70q5 28 -17 43t-65 21t-91 9.5t-108 14.5t-104 31q-142 66 -142 206q0 26 5 56q26 148 164.5 246t314.5 98q162 0 263 -76.5t120 -203.5l-291 -78q-3 54 -37 84.5t-90 30.5q-55 0 -95.5 -27t-45.5 -65 q-4 -32 19 -50.5t67.5 -26t93 -12t107.5 -14t100 -26.5q153 -66 153 -213q0 -25 -4 -52q-26 -164 -166.5 -259t-357.5 -95q-158 0 -279 83.5t-143 211.5z" />
<glyph unicode="t" horiz-adv-x="929" d="M68 729l47 285h204l48 295h325l-47 -295h279l-45 -285h-277l-47 -291q-3 -18 -3 -35q0 -54 30 -87q40 -44 120 -44q52 0 113 23l-43 -264q-106 -35 -209 -35q-187 0 -281 107q-71 81 -70 199q0 38 7 79l55 348h-206z" />
<glyph unicode="u" horiz-adv-x="1275" d="M92 485l84 529h332l-80 -492q-6 -39 -6 -72q0 -70 28 -116q42 -68 136 -68q96 0 159 69t82 189l80 490h332l-162 -1014h-327l20 119h-4q-124 -131 -315 -131q-87 0 -160 33.5t-125 95.5q-51 61 -72 157q-11 50 -11 106q0 50 9 105z" />
<glyph unicode="v" horiz-adv-x="1181" d="M86 1014h328l137 -684l340 684h364l-563 -1014h-364z" />
<glyph unicode="w" horiz-adv-x="1863" d="M94 1014h328l90 -649l315 649h344l113 -649l279 649h364l-508 -1014h-332l-131 633l-319 -633h-346z" />
<glyph unicode="x" horiz-adv-x="1163" d="M-70 0l449 516l-289 498h385l135 -277l215 277h408l-445 -498l285 -516h-385l-133 297l-221 -297h-404z" />
<glyph unicode="y" horiz-adv-x="1179" d="M-63 -512l53 324q123 0 200 33.5t125 113.5l33 57l-262 998h328l139 -680l332 680h368l-643 -1157q-79 -140 -179.5 -222.5t-217.5 -114.5t-276 -32z" />
<glyph unicode="z" horiz-adv-x="1110" d="M-10 0l47 303l579 428h-485l45 283h940l-45 -289l-582 -442h533l-45 -283h-987z" />
<glyph unicode="{" horiz-adv-x="557" d="M78 600l37 236h39q45 0 74.5 27t43.5 72.5t21.5 104.5t14.5 124.5t17.5 131t35 124.5t62 104.5t103 72.5t154.5 27h33l-39 -252h-12q-47 0 -75 -41.5t-37.5 -105.5t-20.5 -143t-22.5 -150t-44 -130.5t-83.5 -82.5q35 -26 45 -87t-1 -133t-22 -150.5t-18.5 -142 t9.5 -104.5t63 -41h12l-41 -251h-33q-80 0 -136 22t-84 60t-41.5 88.5t-10 107.5t11 117t20.5 117t19.5 107.5t7 88.5t-15.5 60t-49 22h-37z" />
<glyph unicode="|" horiz-adv-x="495" d="M-41 -410l324 2048h288l-323 -2048h-289z" />
<glyph unicode="}" horiz-adv-x="555" d="M-90 -190l39 251h12q40 0 66.5 31t39.5 82t21.5 113.5t17.5 129.5t23 126.5t42.5 108t70.5 69.5q-41 24 -53 84t-0.5 131t25 149t23.5 141.5t-5.5 104.5t-61.5 41h-12l39 252h32q89 0 146 -27t80.5 -72.5t29 -104.5t-4.5 -124.5t-23.5 -131t-24.5 -124.5t-11.5 -104.5 t20 -72.5t65.5 -27h39l-37 -236h-37q-36 0 -59.5 -27t-35 -72.5t-19.5 -105t-17 -125t-22.5 -131t-41.5 -125t-68.5 -105t-108 -72.5t-156.5 -27h-33z" />
<glyph unicode="~" horiz-adv-x="1388" d="M53 559q56 119 186.5 199t260.5 80q61 0 125 -19t109 -41.5t103.5 -41.5t110.5 -19q68 0 119.5 38.5t106.5 123.5l198 -183q-64 -122 -189.5 -201t-264.5 -79q-71 0 -134.5 18.5t-104 41t-96.5 41t-114 18.5q-132 0 -217 -152z" />
<glyph unicode="&#xa1;" horiz-adv-x="491" d="M-74 -414l154 967h348l-154 -967h-348zM117 858q12 77 75.5 131.5t139.5 54.5q75 0 120 -54t33 -132q-9 -69 -73.5 -122.5t-139.5 -53.5q-73 0 -119.5 53.5t-35.5 122.5z" />
<glyph unicode="&#xa2;" horiz-adv-x="1232" d="M119 508q32 196 182 343.5t344 176.5l27 172h159l-26 -170q119 -17 209.5 -87t132.5 -175l-305 -156q-10 31 -34.5 52.5t-55.5 29.5l-60 -372q74 15 123 88l260 -146q-76 -111 -191 -185t-245 -93l-25 -144h-157l24 146q-184 31 -287.5 178t-74.5 342zM440 508 q-9 -63 17.5 -111t77.5 -65l55 354q-56 -17 -98 -66.5t-52 -111.5z" />
<glyph unicode="&#xa3;" horiz-adv-x="1122" d="M-37 0l45 285q188 155 230 297h-154l39 233h133q-7 94 -2 191q5 96 40 178.5t95 144.5t151 97.5t203 35.5q140 0 243.5 -75t133.5 -191l-313 -143q-3 46 -32.5 76t-78.5 30q-61 0 -99 -41t-42 -123l-6 -180h409l-38 -233h-424q-55 -167 -191 -297h717l-45 -285h-1014z " />
<glyph unicode="&#xa4;" horiz-adv-x="1261" d="M63 393l175 150q-46 105 -27 231.5t98 231.5l-125 149l195 166l125 -147q116 63 242 63t221 -63l172 147l143 -164l-174 -151q48 -105 27.5 -232.5t-101.5 -232.5l127 -148l-194 -168l-127 150q-116 -63 -241 -63t-220 63l-176 -150zM464 774q-14 -85 38 -147 q52 -61 138 -61.5t157 61.5q69 62 83.5 147.5t-36.5 147.5t-137.5 62t-157.5 -62q-71 -63 -85 -148z" />
<glyph unicode="&#xa5;" horiz-adv-x="1478" d="M213 1434h381l201 -502l350 502h416l-543 -744h190l-24 -149h-271l-14 -86h272l-24 -150h-270l-50 -305h-344l49 305h-272l25 150h270l14 86h-272l25 149h198z" />
<glyph unicode="&#xa6;" horiz-adv-x="495" d="M-41 -410l133 848h289l-133 -848h-289zM150 791l133 847h288l-133 -847h-288z" />
<glyph unicode="&#xa7;" horiz-adv-x="729" d="M84 573q-12 95 44.5 202.5t147.5 168.5l158 -121q-131 -108 -123 -190q4 -36 39.5 -85.5t75.5 -111.5t51 -127q18 -90 -37.5 -194t-148.5 -162l-160 117q113 86 102 178q-3 37 -24 75.5t-46 68.5t-48.5 78.5t-30.5 102.5zM315 1118q-19 93 35 197t150 164l162 -117 q-110 -93 -101 -182q4 -37 38 -87t69.5 -112t42.5 -127q13 -92 -46.5 -197.5t-150.5 -164.5l-152 120q123 91 115 181q-3 37 -25.5 76t-48.5 69.5t-52 79t-36 100.5z" />
<glyph unicode="&#xa8;" horiz-adv-x="665" d="M131 1335q9 53 55.5 92t102.5 39t89.5 -39t24.5 -92q-9 -58 -54 -98.5t-101 -40.5q-57 0 -91.5 40.5t-25.5 98.5zM522 1333q9 55 56 94t106 39q54 0 88 -39t25 -94q-9 -57 -54.5 -97t-101.5 -40q-59 0 -93.5 40t-25.5 97z" />
<glyph unicode="&#xa9;" horiz-adv-x="1474" d="M61 508q22 139 93 263.5t174 215.5t237.5 144t278.5 53q180 0 321 -88.5t209 -245t39 -342.5t-141 -340.5t-281.5 -245t-359.5 -90.5q-134 0 -250 53.5t-193.5 143.5t-113 215.5t-13.5 263.5zM291 508q-29 -186 80 -316.5t295 -130.5q187 0 338 130.5t180 316.5t-81 316 t-296 130q-122 0 -234 -59.5t-187.5 -162t-94.5 -224.5zM365 504q23 154 143.5 260t275.5 106q96 0 174.5 -51t112.5 -135l-201 -102q-12 37 -44 58.5t-76 21.5q-63 0 -115 -46t-62 -112q-10 -64 27 -109t100 -45q44 0 84.5 23t65.5 61l172 -96q-61 -91 -151.5 -143 t-202.5 -52q-143 0 -235 106.5t-68 254.5z" />
<glyph unicode="&#xaa;" horiz-adv-x="1292" d="M66 508q36 226 189.5 375t358.5 149q191 0 289 -141l19 123h331l-159 -1014h-332l18 115q-127 -133 -329 -133q-127 0 -223.5 68.5t-140.5 190t-21 267.5zM389 508q-17 -103 37 -172.5t149 -69.5q98 0 174 68t93 174q19 103 -36 172.5t-153 69.5q-95 0 -170 -69t-94 -173 z" />
<glyph unicode="&#xab;" horiz-adv-x="1091" d="M92 575l438 367l136 -160l-254 -207l178 -198l-176 -168zM518 575l436 367l138 -160l-254 -207l178 -198l-176 -168z" />
<glyph unicode="&#xac;" horiz-adv-x="987" d="M100 547l37 227h799l-74 -444h-254l35 217h-543z" />
<glyph unicode="&#xad;" horiz-adv-x="892" d="M45 408l49 301h768l-47 -301h-770z" />
<glyph unicode="&#xae;" horiz-adv-x="739" d="M193 1329q20 130 122 219.5t236 89.5q126 0 203 -90t55 -219q-21 -129 -122 -218t-234 -89q-124 0 -202 90.5t-58 216.5zM272 1329q-15 -94 41.5 -160.5t151.5 -66.5t173 66.5t91 160.5q17 100 -39 165t-151 65q-97 0 -174.5 -65t-92.5 -165zM362 1169l52 336h129 q49 0 75.5 -30.5t18.5 -77.5q-6 -36 -27.5 -62t-54.5 -37l37 -129h-70l-30 121h-48l-18 -121h-64zM455 1348h57q55 0 66 49q3 27 -10.5 38t-39.5 11h-57z" />
<glyph unicode="&#xaf;" horiz-adv-x="542" d="M115 1233l32 197h541l-31 -197h-542z" />
<glyph unicode="&#xb0;" horiz-adv-x="522" d="M193 1331q14 85 78.5 142t152.5 57q81 0 131 -58t37 -141q-14 -86 -78.5 -143.5t-151.5 -57.5q-81 0 -131.5 58.5t-37.5 142.5zM330 1331q-4 -27 11 -45t42 -18q26 0 47 17.5t25 45.5q5 25 -10.5 43.5t-41.5 18.5t-47 -18.5t-26 -43.5z" />
<glyph unicode="&#xb1;" horiz-adv-x="1017" d="M45 145l45 285h811l-45 -285h-811zM143 760l45 284h263l41 263h288l-41 -263h262l-45 -284h-264l-41 -262h-289l41 262h-260z" />
<glyph unicode="&#xb2;" horiz-adv-x="577" d="M74 809l22 133l234 180q108 83 131 107q33 35 39 71q6 39 -13.5 61.5t-54.5 22.5q-37 0 -66.5 -22.5t-39.5 -63.5l-164 21q32 105 112 164t185 59q108 0 167 -60t42 -165q-13 -78 -63.5 -140t-147.5 -130l-115 -89h272l-22 -147z" />
<glyph unicode="&#xb3;" horiz-adv-x="593" d="M100 997l176 23q-2 -33 21.5 -54.5t62.5 -21.5t69 23t36 63q5 36 -16.5 60t-83.5 24h-23l20 121h21q99 0 113 82q6 32 -12.5 53t-49.5 21q-68 0 -92 -66l-166 21q28 82 103 138t176 56q111 0 170 -59.5t45 -145.5q-9 -55 -46.5 -93.5t-91.5 -57.5q53 -11 85.5 -56 t23.5 -106q-15 -99 -102 -164t-203 -65q-108 0 -173 57t-63 147z" />
<glyph unicode="&#xb4;" horiz-adv-x="395" d="M106 1182l189 299h254l-225 -299h-218z" />
<glyph unicode="&#xb5;" horiz-adv-x="1363" d="M-63 -512l239 1526h332l-76 -490q-20 -122 21.5 -190t132.5 -68q97 0 160 67t83 191l78 490h330l-12 -82l-68 -434q-7 -46 -8 -82t3.5 -60t14.5 -41.5t24 -26.5t32 -14.5t38.5 -5.5h43.5l-43 -270q-58 -4 -80 -4q-258 0 -330 172q-57 -84 -142 -130t-182 -46 q-130 0 -190 84l-92 -586h-309z" />
<glyph unicode="&#xb6;" horiz-adv-x="1306" d="M141 965q36 221 182.5 345t356.5 124h706l-290 -1844h-271l248 1584h-164l-247 -1584h-273l143 902q-148 1 -244.5 63.5t-132.5 167.5t-14 242z" />
<glyph unicode="&#xb7;" horiz-adv-x="491" d="M70 557q11 71 74.5 123.5t138.5 52.5q74 0 120.5 -53t34.5 -123q-12 -77 -74.5 -131.5t-138.5 -54.5q-75 0 -121 54t-34 132z" />
<glyph unicode="&#xb8;" horiz-adv-x="448" d="M-131 -317l108 67q28 -60 99 -57q41 0 68.5 22.5t33.5 55.5q7 50 -49.5 70.5t-134.5 -1.5l72 195h133l-35 -84q83 2 131.5 -50t36.5 -130q-14 -90 -83.5 -148.5t-174.5 -58.5q-78 -1 -131.5 32t-73.5 87z" />
<glyph unicode="&#xb9;" horiz-adv-x="378" d="M147 1296l23 152q90 0 113 78h174l-113 -717h-174l80 508q-45 -21 -103 -21z" />
<glyph unicode="&#xba;" horiz-adv-x="1236" d="M70 508q38 240 217 391.5t418 151.5q155 0 270 -75.5t164.5 -199.5t27.5 -268q-38 -239 -214 -388t-421 -149q-105 0 -198 40.5t-157.5 110.5t-94.5 171.5t-12 214.5zM399 506q-15 -99 37.5 -166.5t143.5 -67.5q92 -1 166.5 66.5t91.5 167.5q15 102 -38 168.5t-145 66.5 q-92 2 -166.5 -65.5t-89.5 -169.5z" />
<glyph unicode="&#xbb;" horiz-adv-x="1093" d="M23 369l253 206l-178 199l176 168l322 -367l-436 -366zM449 369l253 206l-178 199l176 168l322 -367l-438 -366z" />
<glyph unicode="&#xbc;" horiz-adv-x="1437" d="M-125 -164l1417 1864h172l-1417 -1864h-172zM135 1214l23 152q91 0 114 78h174l-112 -717h-176l82 508q-46 -21 -105 -21zM766 111l22 139l232 457h180l-231 -457h159l41 268h166l-41 -268h86l-22 -139h-86l-19 -121h-166l19 121h-340z" />
<glyph unicode="&#xbd;" horiz-adv-x="1390" d="M-125 -164l1417 1864h172l-1417 -1864h-172zM135 1214l23 152q91 0 114 78h174l-112 -717h-176l82 508q-46 -21 -105 -21zM756 -10l22 133l234 180q108 83 131 107q33 35 39 71q6 39 -13.5 61.5t-54.5 22.5q-37 0 -66.5 -22.5t-39.5 -63.5l-164 21q32 105 112 164t185 59 q108 0 167 -60t42 -165q-13 -78 -63.5 -140.5t-147.5 -130.5l-115 -88h272l-22 -147z" />
<glyph unicode="&#xbe;" horiz-adv-x="1611" d="M47 -164l1417 1864h172l-1417 -1864h-172zM88 915l176 23q-2 -33 21.5 -54.5t62.5 -21.5t69 23t36 63q5 36 -17 60t-84 24h-22l20 121h21q98 0 112 82q6 32 -12 53t-49 21q-68 0 -92 -66l-166 21q28 83 102.5 138.5t175.5 55.5q111 0 170 -59.5t45 -145.5 q-9 -55 -46.5 -93.5t-90.5 -57.5q53 -11 85.5 -56t23.5 -106q-15 -99 -102 -164t-203 -65q-108 0 -173 57t-63 147zM940 111l23 139l231 457h180l-231 -457h160l40 268h166l-41 -268h86l-22 -139h-86l-19 -121h-165l18 121h-340z" />
<glyph unicode="&#xbf;" horiz-adv-x="1171" d="M-14 25q11 69 42 127t72.5 97.5t89.5 73.5t95 63.5t87.5 59t69 68.5t35.5 84h344q-14 -85 -46 -151t-72 -105.5t-86 -70t-91 -53.5t-82.5 -46t-64 -57.5t-33.5 -79.5q-8 -62 32 -105t126 -43q67 0 122 38.5t83 101.5l311 -97q-74 -155 -226 -249.5t-348 -94.5 q-143 0 -254.5 53.5t-168.5 155t-37 230.5zM512 881q12 77 75.5 131.5t137.5 54.5q75 0 121.5 -54t36.5 -132q-12 -71 -76 -123.5t-139 -52.5q-73 0 -120 52.5t-36 123.5z" />
<glyph unicode="&#xc0;" horiz-adv-x="1527" d="M-72 0l799 1434h360l355 -1434h-365l-47 215h-596l-115 -215h-391zM594 528h373l-109 506h-6zM674 1901h260l110 -299h-215z" />
<glyph unicode="&#xc1;" horiz-adv-x="1527" d="M-72 0l799 1434h360l355 -1434h-365l-47 215h-596l-115 -215h-391zM594 528h373l-109 506h-6zM825 1602l189 299h254l-226 -299h-217z" />
<glyph unicode="&#xc2;" horiz-adv-x="1527" d="M-72 0l799 1434h360l355 -1434h-365l-47 215h-596l-115 -215h-391zM594 528h373l-109 506h-6zM600 1606l264 292h236l168 -292h-232l-78 147l-127 -147h-231z" />
<glyph unicode="&#xc3;" horiz-adv-x="1527" d="M-72 0l799 1434h360l355 -1434h-365l-47 215h-596l-115 -215h-391zM594 528h373l-109 506h-6zM653 1731l111 118q40 -43 92 -43q42 0 115.5 32t122.5 32q105 0 170 -101l-111 -118q-32 47 -96 47q-37 0 -111.5 -32t-122.5 -32q-51 0 -99.5 30t-70.5 67z" />
<glyph unicode="&#xc4;" horiz-adv-x="1527" d="M-72 0l799 1434h360l355 -1434h-365l-47 215h-596l-115 -215h-391zM594 528h373l-109 506h-6zM627 1755q9 53 55 92t102 39q57 0 90.5 -39t24.5 -92q-9 -58 -54.5 -98.5t-101.5 -40.5q-57 0 -91 40.5t-25 98.5zM1018 1753q9 55 56 94t106 39q54 0 87.5 -39t24.5 -94 q-9 -57 -54.5 -97t-100.5 -40q-59 0 -93.5 40t-25.5 97z" />
<glyph unicode="&#xc5;" horiz-adv-x="1527" d="M-72 0l799 1434h360l355 -1434h-365l-47 215h-596l-115 -215h-391zM594 528h373l-109 506h-6zM791 1753q11 68 66.5 117t127.5 49q67 0 108.5 -50t30.5 -116q-11 -70 -65.5 -120t-126.5 -50q-70 0 -111 50t-30 120zM905 1751q-5 -22 8.5 -37.5t36.5 -15.5q22 0 39.5 15.5 t20.5 37.5q4 21 -9 37t-34 16q-23 0 -41 -15.5t-21 -37.5z" />
<glyph unicode="&#xc6;" horiz-adv-x="2078" d="M-72 0l975 1434h1256l-48 -312h-690l-39 -248h666l-47 -311h-668l-41 -252h690l-49 -311h-1038l35 225h-424l-150 -225h-428zM707 539h274l84 540z" />
<glyph unicode="&#xc7;" d="M98 717q25 153 100.5 288.5t186.5 234.5t258 156.5t307 57.5q198 0 357.5 -105.5t224.5 -277.5l-336 -158q-36 88 -116 140.5t-187 52.5q-161 0 -289 -113.5t-153 -275.5q-26 -162 66 -275.5t253 -113.5q109 0 207 53.5t160 144.5l286 -157q-121 -178 -280.5 -278 t-378.5 -109l-12 -31q83 2 131.5 -50t36.5 -130q-14 -90 -83.5 -148.5t-174.5 -58.5q-78 -1 -131.5 32t-73.5 87l108 67q28 -60 99 -57q41 0 68.5 22.5t33.5 55.5q7 50 -49.5 70.5t-134.5 -1.5l53 144q-128 16 -238 80t-183.5 160t-105.5 225t-10 268z" />
<glyph unicode="&#xc8;" horiz-adv-x="1230" d="M51 0l225 1434h1037l-49 -306h-689l-40 -260h673l-45 -297h-674l-43 -266h691l-50 -305h-1036zM567 1901h260l111 -299h-215z" />
<glyph unicode="&#xc9;" horiz-adv-x="1230" d="M51 0l225 1434h1037l-49 -306h-689l-40 -260h673l-45 -297h-674l-43 -266h691l-50 -305h-1036zM719 1602l188 299h254l-225 -299h-217z" />
<glyph unicode="&#xca;" horiz-adv-x="1230" d="M51 0l225 1434h1037l-49 -306h-689l-40 -260h673l-45 -297h-674l-43 -266h691l-50 -305h-1036zM496 1606l264 292h235l168 -292h-231l-78 147l-127 -147h-231z" />
<glyph unicode="&#xcb;" horiz-adv-x="1230" d="M51 0l225 1434h1037l-49 -306h-689l-40 -260h673l-45 -297h-674l-43 -266h691l-50 -305h-1036zM520 1755q9 53 55.5 92t102.5 39q57 0 90.5 -39t24.5 -92q-9 -58 -54.5 -98.5t-101.5 -40.5q-57 0 -91.5 40.5t-25.5 98.5zM911 1753q9 55 56 94t106 39q54 0 88 -39t25 -94 q-9 -57 -54.5 -97t-101.5 -40q-59 0 -93.5 40t-25.5 97z" />
<glyph unicode="&#xcc;" horiz-adv-x="606" d="M51 0l225 1434h349l-226 -1434h-348zM213 1901h260l111 -299h-215z" />
<glyph unicode="&#xcd;" horiz-adv-x="606" d="M51 0l225 1434h349l-226 -1434h-348zM365 1602l188 299h254l-225 -299h-217z" />
<glyph unicode="&#xce;" horiz-adv-x="606" d="M51 0l225 1434h349l-226 -1434h-348zM139 1606l264 292h236l168 -292h-232l-77 147l-127 -147h-232z" />
<glyph unicode="&#xcf;" horiz-adv-x="606" d="M51 0l225 1434h349l-226 -1434h-348zM166 1755q9 53 55.5 92t102.5 39t89.5 -39t24.5 -92q-9 -58 -54 -98.5t-101 -40.5q-57 0 -91.5 40.5t-25.5 98.5zM557 1753q9 55 56 94t106 39q54 0 87.5 -39t24.5 -94q-9 -57 -54.5 -97t-100.5 -40q-59 0 -93.5 40t-25.5 97z" />
<glyph unicode="&#xd0;" d="M27 602l34 229h119l96 603l574 2q106 0 205 -29.5t183.5 -89.5t143 -144t82 -201.5t2.5 -252.5q-27 -171 -100.5 -308t-180.5 -226.5t-242 -137t-288 -47.5h-606l96 602h-118zM451 336h229q172 0 291.5 95t150.5 288q15 98 -4.5 173t-68 119.5t-115 66.5t-150.5 22 l-213 -2l-43 -267h310l-35 -229h-309z" />
<glyph unicode="&#xd1;" horiz-adv-x="1562" d="M51 0l225 1434h363l453 -908l139 908h348l-225 -1434h-363l-452 907l-140 -907h-348zM657 1731l113 118q34 -43 92 -43q41 0 114.5 32t121.5 32q107 0 172 -101l-111 -118q-32 47 -96 47q-37 0 -112 -32t-124 -32q-50 0 -98 29.5t-72 67.5z" />
<glyph unicode="&#xd2;" horiz-adv-x="1603" d="M93.5 520.5q-13.5 94.5 4.5 196.5q25 152 100 287t185.5 234.5t258 157.5t308.5 58q97 0 187 -26.5t163 -74t132 -115t93.5 -149t48 -176t-4.5 -196.5q-25 -153 -97 -287t-180.5 -234.5t-257 -158t-317.5 -57.5q-97 0 -187 26.5t-163 74t-132 115t-93.5 149t-48 176z M446 717q-28 -168 65.5 -283t258.5 -115q164 0 293.5 115t157.5 283q26 168 -67 282.5t-257 114.5q-165 0 -294 -114.5t-157 -282.5zM713 1901h260l110 -299h-215z" />
<glyph unicode="&#xd3;" horiz-adv-x="1603" d="M93.5 520.5q-13.5 94.5 4.5 196.5q25 152 100 287t185.5 234.5t258 157.5t308.5 58q97 0 187 -26.5t163 -74t132 -115t93.5 -149t48 -176t-4.5 -196.5q-25 -153 -97 -287t-180.5 -234.5t-257 -158t-317.5 -57.5q-97 0 -187 26.5t-163 74t-132 115t-93.5 149t-48 176z M446 717q-28 -168 65.5 -283t258.5 -115q164 0 293.5 115t157.5 283q26 168 -67 282.5t-257 114.5q-165 0 -294 -114.5t-157 -282.5zM864 1602l189 299h254l-226 -299h-217z" />
<glyph unicode="&#xd4;" horiz-adv-x="1603" d="M93.5 520.5q-13.5 94.5 4.5 196.5q25 152 100 287t185.5 234.5t258 157.5t308.5 58q97 0 187 -26.5t163 -74t132 -115t93.5 -149t48 -176t-4.5 -196.5q-25 -153 -97 -287t-180.5 -234.5t-257 -158t-317.5 -57.5q-97 0 -187 26.5t-163 74t-132 115t-93.5 149t-48 176z M446 717q-28 -168 65.5 -283t258.5 -115q164 0 293.5 115t157.5 283q26 168 -67 282.5t-257 114.5q-165 0 -294 -114.5t-157 -282.5zM639 1606l264 292h236l168 -292h-232l-78 147l-127 -147h-231z" />
<glyph unicode="&#xd5;" horiz-adv-x="1603" d="M93.5 520.5q-13.5 94.5 4.5 196.5q25 152 100 287t185.5 234.5t258 157.5t308.5 58q97 0 187 -26.5t163 -74t132 -115t93.5 -149t48 -176t-4.5 -196.5q-25 -153 -97 -287t-180.5 -234.5t-257 -158t-317.5 -57.5q-97 0 -187 26.5t-163 74t-132 115t-93.5 149t-48 176z M446 717q-28 -168 65.5 -283t258.5 -115q164 0 293.5 115t157.5 283q26 168 -67 282.5t-257 114.5q-165 0 -294 -114.5t-157 -282.5zM692 1731l111 118q40 -43 92 -43q42 0 115.5 32t122.5 32q105 0 170 -101l-111 -118q-32 47 -96 47q-37 0 -111.5 -32t-122.5 -32 q-51 0 -99.5 30t-70.5 67z" />
<glyph unicode="&#xd6;" horiz-adv-x="1603" d="M93.5 520.5q-13.5 94.5 4.5 196.5q25 152 100 287t185.5 234.5t258 157.5t308.5 58q97 0 187 -26.5t163 -74t132 -115t93.5 -149t48 -176t-4.5 -196.5q-25 -153 -97 -287t-180.5 -234.5t-257 -158t-317.5 -57.5q-97 0 -187 26.5t-163 74t-132 115t-93.5 149t-48 176z M446 717q-28 -168 65.5 -283t258.5 -115q164 0 293.5 115t157.5 283q26 168 -67 282.5t-257 114.5q-165 0 -294 -114.5t-157 -282.5zM666 1755q9 53 55 92t102 39q57 0 90.5 -39t24.5 -92q-9 -58 -54.5 -98.5t-101.5 -40.5q-57 0 -91 40.5t-25 98.5zM1057 1753q9 55 56 94 t106 39q54 0 87.5 -39t24.5 -94q-9 -57 -54.5 -97t-100.5 -40q-59 0 -93.5 40t-25.5 97z" />
<glyph unicode="&#xd7;" horiz-adv-x="952" d="M86 502l215 186l-151 176l227 195l149 -176l224 190l174 -209l-224 -190l158 -187l-225 -196l-156 186l-215 -186z" />
<glyph unicode="&#xd8;" horiz-adv-x="1603" d="M98 717q25 152 100 287t185.5 234.5t258 157.5t308.5 58q112 0 215 -35l78 123h236l-140 -217q134 -102 197 -262.5t33 -345.5q-25 -153 -97 -287t-180.5 -234.5t-257 -158t-317.5 -57.5q-114 0 -215 34l-78 -123h-236l140 218q-134 102 -197 262.5t-33 345.5zM446 717 q-29 -178 78 -299l443 690q-35 6 -70 6q-165 0 -294 -114.5t-157 -282.5zM700 326q40 -7 70 -7q164 0 293.5 115t157.5 283q13 89 -8 166t-72 131z" />
<glyph unicode="&#xd9;" d="M125 592l133 842h348l-121 -775q-14 -69 -5 -131.5t33.5 -109.5t78.5 -75t131 -28q145 0 232.5 97.5t109.5 246.5l123 775h348l-133 -842q-44 -287 -240.5 -449.5t-492.5 -162.5q-131 0 -242 47.5t-184.5 128.5t-106 195t-12.5 241zM649 1901h260l111 -299h-215z" />
<glyph unicode="&#xda;" d="M125 592l133 842h348l-121 -775q-14 -69 -5 -131.5t33.5 -109.5t78.5 -75t131 -28q145 0 232.5 97.5t109.5 246.5l123 775h348l-133 -842q-44 -287 -240.5 -449.5t-492.5 -162.5q-131 0 -242 47.5t-184.5 128.5t-106 195t-12.5 241zM801 1602l188 299h254l-225 -299h-217 z" />
<glyph unicode="&#xdb;" d="M125 592l133 842h348l-121 -775q-14 -69 -5 -131.5t33.5 -109.5t78.5 -75t131 -28q145 0 232.5 97.5t109.5 246.5l123 775h348l-133 -842q-44 -287 -240.5 -449.5t-492.5 -162.5q-131 0 -242 47.5t-184.5 128.5t-106 195t-12.5 241zM575 1606l265 292h235l168 -292h-231 l-78 147l-127 -147h-232z" />
<glyph unicode="&#xdc;" d="M125 592l133 842h348l-121 -775q-14 -69 -5 -131.5t33.5 -109.5t78.5 -75t131 -28q145 0 232.5 97.5t109.5 246.5l123 775h348l-133 -842q-44 -287 -240.5 -449.5t-492.5 -162.5q-131 0 -242 47.5t-184.5 128.5t-106 195t-12.5 241zM602 1755q9 53 55.5 92t102.5 39 t89.5 -39t24.5 -92q-9 -58 -54 -98.5t-101 -40.5q-57 0 -91.5 40.5t-25.5 98.5zM993 1753q9 55 56 94t106 39q54 0 88 -39t25 -94q-9 -57 -54.5 -97t-101.5 -40q-59 0 -93.5 40t-25.5 97z" />
<glyph unicode="&#xdd;" horiz-adv-x="1380" d="M156 1434h376l207 -535l348 535h433l-648 -867l-86 -567h-348l86 567zM721 1602l188 299h254l-225 -299h-217z" />
<glyph unicode="&#xde;" horiz-adv-x="1265" d="M51 0l225 1434h349l-37 -238h241q95 0 178 -32.5t143 -91.5t87.5 -151.5t9.5 -203.5q-17 -112 -69.5 -203.5t-129 -151.5t-171.5 -92t-199 -32h-244l-35 -238h-348zM485 549h213q82 0 137.5 44t67.5 124t-29 124t-122 44h-215z" />
<glyph unicode="&#xdf;" horiz-adv-x="1552" d="M76 729l45 285h166l24 157q28 183 163 294.5t337 111.5q199 0 298 -102t75 -256q-10 -61 -30.5 -111.5t-43.5 -83t-45.5 -60t-40.5 -58t-23 -62.5q-7 -42 18.5 -73t70 -50.5t100 -38t109.5 -45t96.5 -62t63.5 -97t9 -142.5q-19 -121 -96 -204t-180 -118.5t-223 -33.5 q-156 3 -268 77t-138 217l293 80q5 -50 40 -82t97 -32q69 0 109 30t45 82q3 31 -24 56.5t-72 45.5t-99.5 41t-107 49t-94 63.5t-62.5 91.5t-10 126q8 52 35 107.5t56 95.5t55.5 89.5t33.5 90.5q6 40 -18 67.5t-72 27.5q-47 0 -80.5 -30.5t-42.5 -86.5l-186 -1186h-332 l115 729h-166z" />
<glyph unicode="&#xe0;" horiz-adv-x="1292" d="M66 508q36 226 189.5 375t358.5 149q191 0 289 -141l19 123h331l-159 -1014h-332l18 115q-127 -133 -329 -133q-127 0 -223.5 68.5t-140.5 190t-21 267.5zM389 508q-17 -103 37 -172.5t149 -69.5q98 0 174 68t93 174q19 103 -36 172.5t-153 69.5q-95 0 -170 -69t-94 -173 zM502 1481h260l110 -299h-215z" />
<glyph unicode="&#xe1;" horiz-adv-x="1292" d="M66 508q36 226 189.5 375t358.5 149q191 0 289 -141l19 123h331l-159 -1014h-332l18 115q-127 -133 -329 -133q-127 0 -223.5 68.5t-140.5 190t-21 267.5zM389 508q-17 -103 37 -172.5t149 -69.5q98 0 174 68t93 174q19 103 -36 172.5t-153 69.5q-95 0 -170 -69t-94 -173 zM653 1182l189 299h254l-226 -299h-217z" />
<glyph unicode="&#xe2;" horiz-adv-x="1292" d="M66 508q36 226 189.5 375t358.5 149q191 0 289 -141l19 123h331l-159 -1014h-332l18 115q-127 -133 -329 -133q-127 0 -223.5 68.5t-140.5 190t-21 267.5zM389 508q-17 -103 37 -172.5t149 -69.5q98 0 174 68t93 174q19 103 -36 172.5t-153 69.5q-95 0 -170 -69t-94 -173 zM428 1186l264 293h236l168 -293h-232l-78 147l-127 -147h-231z" />
<glyph unicode="&#xe3;" horiz-adv-x="1292" d="M66 508q36 226 189.5 375t358.5 149q191 0 289 -141l19 123h331l-159 -1014h-332l18 115q-127 -133 -329 -133q-127 0 -223.5 68.5t-140.5 190t-21 267.5zM389 508q-17 -103 37 -172.5t149 -69.5q98 0 174 68t93 174q19 103 -36 172.5t-153 69.5q-95 0 -170 -69t-94 -173 zM483 1311l111 119q40 -44 92 -44q42 0 115.5 32t122.5 32q105 0 170 -100l-111 -119q-32 47 -96 47q-37 0 -111.5 -32t-122.5 -32q-51 0 -99.5 30t-70.5 67z" />
<glyph unicode="&#xe4;" horiz-adv-x="1292" d="M66 508q36 226 189.5 375t358.5 149q191 0 289 -141l19 123h331l-159 -1014h-332l18 115q-127 -133 -329 -133q-127 0 -223.5 68.5t-140.5 190t-21 267.5zM389 508q-17 -103 37 -172.5t149 -69.5q98 0 174 68t93 174q19 103 -36 172.5t-153 69.5q-95 0 -170 -69t-94 -173 zM455 1335q9 53 55 92t102 39q57 0 90.5 -39t24.5 -92q-9 -58 -54.5 -98.5t-101.5 -40.5q-57 0 -91 40.5t-25 98.5zM846 1333q9 55 56 94t106 39q54 0 87.5 -39t24.5 -94q-9 -57 -54.5 -97t-100.5 -40q-59 0 -93.5 40t-25.5 97z" />
<glyph unicode="&#xe5;" horiz-adv-x="1292" d="M66 508q36 226 189.5 375t358.5 149q191 0 289 -141l19 123h331l-159 -1014h-332l18 115q-127 -133 -329 -133q-127 0 -223.5 68.5t-140.5 190t-21 267.5zM389 508q-17 -103 37 -172.5t149 -69.5q98 0 174 68t93 174q19 103 -36 172.5t-153 69.5q-95 0 -170 -69t-94 -173 zM621 1333q11 68 66.5 117t127.5 49q67 0 108.5 -50t30.5 -116q-11 -70 -65.5 -120t-126.5 -50q-70 0 -111 50t-30 120zM735 1331q-5 -22 8.5 -37.5t36.5 -15.5q22 0 39.5 15.5t20.5 37.5q4 21 -9 37t-34 16q-23 0 -41 -15.5t-21 -37.5z" />
<glyph unicode="&#xe6;" horiz-adv-x="2111" d="M66 508q24 153 108.5 271.5t205 181.5t255.5 63q93 0 166 -32t117 -89l16 111h328l-17 -111q134 123 377 123q69 0 136 -20.5t126.5 -63.5t101 -103t58.5 -146.5t2 -186.5q-8 -56 -16 -90h-740q7 -85 63.5 -130.5t139.5 -45.5q70 0 138 28.5t112 75.5l172 -166 q-84 -95 -206.5 -142.5t-252.5 -47.5q-231 0 -336 131l-20 -119h-328l21 113q-131 -125 -322 -125q-205 0 -323 145.5t-82 374.5zM401 508q-15 -96 40 -161.5t151 -65.5q94 0 169.5 65.5t92.5 163.5q13 94 -41.5 158.5t-146.5 64.5q-96 0 -173 -65.5t-92 -159.5zM1337 637 h422q-8 74 -54.5 117t-121.5 43q-79 0 -145 -43t-101 -117z" />
<glyph unicode="&#xe7;" horiz-adv-x="1073" d="M61 508q17 111 73.5 211t139.5 173t193 116t229 43q133 0 240.5 -60.5t167.5 -163.5l-289 -190q-22 48 -66 75.5t-102 28.5q-96 1 -170.5 -65.5t-91.5 -169.5q-15 -100 36 -165.5t146 -66.5q59 -2 116.5 27t90.5 78l227 -189q-83 -90 -190.5 -147t-226.5 -70l-19 -43 q83 2 131.5 -50t36.5 -130q-14 -90 -83.5 -148.5t-174.5 -58.5q-78 -1 -131.5 32t-73.5 87l109 68q28 -61 98 -58q41 0 69 22.5t34 55.5q7 50 -50 71t-135 -1l58 155q-127 18 -224 92.5t-143 191t-25 249.5z" />
<glyph unicode="&#xe8;" horiz-adv-x="1206" d="M72 535q15 100 67 192.5t130.5 164.5t189.5 115.5t235 43.5q215 0 339.5 -148t107.5 -389q-2 -37 -17 -98h-762q12 -83 70 -129.5t137 -46.5q71 0 136 26.5t110 71.5l195 -168q-90 -96 -216 -147.5t-266 -49.5q-109 1 -202.5 44.5t-156 117.5t-89.5 178.5t-8 221.5z M397 625h459q-16 86 -72 129t-131 43q-78 0 -147.5 -43.5t-108.5 -128.5zM451 1511h260l110 -299h-215z" />
<glyph unicode="&#xe9;" horiz-adv-x="1206" d="M72 535q15 100 67 192.5t130.5 164.5t189.5 115.5t235 43.5q215 0 339.5 -148t107.5 -389q-2 -37 -17 -98h-762q12 -83 70 -129.5t137 -46.5q71 0 136 26.5t110 71.5l195 -168q-90 -96 -216 -147.5t-266 -49.5q-109 1 -202.5 44.5t-156 117.5t-89.5 178.5t-8 221.5z M397 625h459q-16 86 -72 129t-131 43q-78 0 -147.5 -43.5t-108.5 -128.5zM602 1212l189 299h253l-225 -299h-217z" />
<glyph unicode="&#xea;" horiz-adv-x="1206" d="M72 535q15 100 67 192.5t130.5 164.5t189.5 115.5t235 43.5q215 0 339.5 -148t107.5 -389q-2 -37 -17 -98h-762q12 -83 70 -129.5t137 -46.5q71 0 136 26.5t110 71.5l195 -168q-90 -96 -216 -147.5t-266 -49.5q-109 1 -202.5 44.5t-156 117.5t-89.5 178.5t-8 221.5z M377 1217l264 292h236l167 -292h-231l-78 147l-127 -147h-231zM397 625h459q-16 86 -72 129t-131 43q-78 0 -147.5 -43.5t-108.5 -128.5z" />
<glyph unicode="&#xeb;" horiz-adv-x="1206" d="M72 535q15 100 67 192.5t130.5 164.5t189.5 115.5t235 43.5q215 0 339.5 -148t107.5 -389q-2 -37 -17 -98h-762q12 -83 70 -129.5t137 -46.5q71 0 136 26.5t110 71.5l195 -168q-90 -96 -216 -147.5t-266 -49.5q-109 1 -202.5 44.5t-156 117.5t-89.5 178.5t-8 221.5z M397 625h459q-16 86 -72 129t-131 43q-78 0 -147.5 -43.5t-108.5 -128.5zM403 1366q9 53 55.5 92t102.5 39q57 0 90.5 -39t24.5 -92q-9 -58 -54.5 -98.5t-101.5 -40.5q-57 0 -91.5 40.5t-25.5 98.5zM795 1364q9 56 56 94.5t105 38.5q54 0 88 -39t25 -94q-9 -57 -54.5 -97 t-101.5 -40q-58 0 -92.5 40t-25.5 97z" />
<glyph unicode="&#xec;" horiz-adv-x="532" d="M25 0l159 1014h324l-160 -1014h-323zM113 1481h260l110 -299h-215z" />
<glyph unicode="&#xed;" horiz-adv-x="532" d="M25 0l159 1014h324l-160 -1014h-323zM264 1182l189 299h254l-226 -299h-217z" />
<glyph unicode="&#xee;" horiz-adv-x="532" d="M25 0l159 1014h324l-160 -1014h-323zM39 1186l264 293h236l168 -293h-232l-78 147l-127 -147h-231z" />
<glyph unicode="&#xef;" horiz-adv-x="532" d="M25 0l159 1014h324l-160 -1014h-323zM66 1335q9 53 55 92t102 39q57 0 90.5 -39t24.5 -92q-9 -58 -54.5 -98.5t-101.5 -40.5q-57 0 -91 40.5t-25 98.5zM457 1333q9 56 56 94.5t105 38.5q54 0 88 -39t25 -94q-9 -57 -54.5 -97t-101.5 -40q-58 0 -92.5 40t-25.5 97z" />
<glyph unicode="&#xf0;" horiz-adv-x="1179" d="M66 485q34 211 206.5 358.5t384.5 147.5q43 0 85 -15t67 -40q-12 76 -80.5 150.5t-173.5 117.5l-104 -162l-205 82l84 129q-117 16 -236 13l43 270q181 0 352 -29l93 142l202 -76l-96 -152q259 -119 369 -349t63 -523q-19 -118 -59.5 -212.5t-97.5 -160.5t-131 -110 t-157 -64t-177 -20q-98 0 -185.5 40t-147 106.5t-87.5 160.5t-12 196zM367 498q-14 -88 37.5 -150.5t140.5 -62.5q90 0 162 62.5t86 150.5q14 89 -38 151t-141 62t-161.5 -62t-85.5 -151z" />
<glyph unicode="&#xf1;" horiz-adv-x="1275" d="M37 0l162 1014h331l-18 -113q134 131 305 131q91 0 166.5 -35t126.5 -99t71.5 -160t2.5 -210l-84 -528h-332l78 500q19 120 -22.5 187t-133.5 67q-94 0 -159.5 -70.5t-84.5 -187.5l-77 -496h-332zM481 1311l111 119q40 -44 92 -44q42 0 115.5 32t122.5 32q105 0 170 -100 l-111 -119q-32 47 -96 47q-37 0 -111.5 -32t-122.5 -32q-51 0 -99.5 30t-70.5 67z" />
<glyph unicode="&#xf2;" horiz-adv-x="1236" d="M70 508q38 240 217 391.5t418 151.5q155 0 270 -75.5t164.5 -199.5t27.5 -268q-38 -239 -214 -388t-421 -149q-105 0 -198 40.5t-157.5 110.5t-94.5 171.5t-12 214.5zM399 506q-15 -99 37.5 -166.5t143.5 -67.5q92 -1 166.5 66.5t91.5 167.5q15 102 -38 168.5t-145 66.5 q-92 2 -166.5 -65.5t-89.5 -169.5zM463 1481h260l111 -299h-216z" />
<glyph unicode="&#xf3;" horiz-adv-x="1236" d="M70 508q38 240 217 391.5t418 151.5q155 0 270 -75.5t164.5 -199.5t27.5 -268q-38 -239 -214 -388t-421 -149q-105 0 -198 40.5t-157.5 110.5t-94.5 171.5t-12 214.5zM399 506q-15 -99 37.5 -166.5t143.5 -67.5q92 -1 166.5 66.5t91.5 167.5q15 102 -38 168.5t-145 66.5 q-92 2 -166.5 -65.5t-89.5 -169.5zM614 1182l189 299h254l-226 -299h-217z" />
<glyph unicode="&#xf4;" horiz-adv-x="1236" d="M70 508q38 240 217 391.5t418 151.5q155 0 270 -75.5t164.5 -199.5t27.5 -268q-38 -239 -214 -388t-421 -149q-105 0 -198 40.5t-157.5 110.5t-94.5 171.5t-12 214.5zM391 1186l264 293h236l168 -293h-232l-77 147l-127 -147h-232zM399 506q-15 -99 37.5 -166.5 t143.5 -67.5q92 -1 166.5 66.5t91.5 167.5q15 102 -38 168.5t-145 66.5q-92 2 -166.5 -65.5t-89.5 -169.5z" />
<glyph unicode="&#xf5;" horiz-adv-x="1236" d="M70 508q38 240 217 391.5t418 151.5q155 0 270 -75.5t164.5 -199.5t27.5 -268q-38 -239 -214 -388t-421 -149q-105 0 -198 40.5t-157.5 110.5t-94.5 171.5t-12 214.5zM399 506q-15 -99 37.5 -166.5t143.5 -67.5q92 -1 166.5 66.5t91.5 167.5q15 102 -38 168.5t-145 66.5 q-92 2 -166.5 -65.5t-89.5 -169.5zM444 1311l111 119q40 -44 92 -44q42 0 115.5 32t122.5 32q105 0 170 -100l-111 -119q-32 47 -96 47q-37 0 -111.5 -32t-122.5 -32q-51 0 -99.5 30t-70.5 67z" />
<glyph unicode="&#xf6;" horiz-adv-x="1236" d="M70 508q38 240 217 391.5t418 151.5q155 0 270 -75.5t164.5 -199.5t27.5 -268q-38 -239 -214 -388t-421 -149q-105 0 -198 40.5t-157.5 110.5t-94.5 171.5t-12 214.5zM399 506q-15 -99 37.5 -166.5t143.5 -67.5q92 -1 166.5 66.5t91.5 167.5q15 102 -38 168.5t-145 66.5 q-92 2 -166.5 -65.5t-89.5 -169.5zM416 1335q9 53 55 92t102 39q57 0 90.5 -39t24.5 -92q-9 -58 -54.5 -98.5t-101.5 -40.5q-57 0 -91 40.5t-25 98.5zM807 1333q9 55 56 94t106 39q54 0 87.5 -39t24.5 -94q-9 -57 -54.5 -97t-100.5 -40q-59 0 -93.5 40t-25.5 97z" />
<glyph unicode="&#xf7;" horiz-adv-x="1073" d="M88 549l45 285h909l-45 -285h-909zM352 319q9 65 61.5 110.5t118.5 45.5q64 0 102.5 -45.5t29.5 -110.5q-10 -64 -63 -109.5t-118 -45.5q-66 0 -104 45t-27 110zM469 1063q11 63 63.5 108.5t116.5 45.5t103 -45.5t28 -108.5q-10 -66 -62.5 -112t-117.5 -46t-103 46 t-28 112z" />
<glyph unicode="&#xf8;" horiz-adv-x="1218" d="M70 508q38 240 217 391.5t418 151.5q86 0 163 -25l64 98h135l-94 -147q113 -72 165 -197.5t29 -271.5q-38 -239 -214 -388t-421 -149q-91 0 -182 33l-84 -129h-135l119 184q-103 71 -153 189t-27 260zM399 506q-15 -92 33 -162l252 395q-8 2 -29 2q-92 2 -166.5 -65.5 t-89.5 -169.5zM526 281q24 -9 54 -9q92 -1 166.5 66.5t91.5 167.5q18 114 -50 182z" />
<glyph unicode="&#xf9;" horiz-adv-x="1275" d="M92 485l84 529h332l-80 -492q-20 -121 22.5 -188.5t135.5 -67.5q96 0 159 69t82 189l80 490h332l-162 -1014h-327l20 119h-4q-124 -131 -315 -131q-87 0 -160 33.5t-124.5 95.5t-72.5 157.5t-2 210.5zM477 1481h260l111 -299h-215z" />
<glyph unicode="&#xfa;" horiz-adv-x="1275" d="M92 485l84 529h332l-80 -492q-20 -121 22.5 -188.5t135.5 -67.5q96 0 159 69t82 189l80 490h332l-162 -1014h-327l20 119h-4q-124 -131 -315 -131q-87 0 -160 33.5t-124.5 95.5t-72.5 157.5t-2 210.5zM629 1182l188 299h254l-225 -299h-217z" />
<glyph unicode="&#xfb;" horiz-adv-x="1275" d="M92 485l84 529h332l-80 -492q-20 -121 22.5 -188.5t135.5 -67.5q96 0 159 69t82 189l80 490h332l-162 -1014h-327l20 119h-4q-124 -131 -315 -131q-87 0 -160 33.5t-124.5 95.5t-72.5 157.5t-2 210.5zM403 1186l265 293h235l168 -293h-231l-78 147l-127 -147h-232z" />
<glyph unicode="&#xfc;" horiz-adv-x="1275" d="M92 485l84 529h332l-80 -492q-20 -121 22.5 -188.5t135.5 -67.5q96 0 159 69t82 189l80 490h332l-162 -1014h-327l20 119h-4q-124 -131 -315 -131q-87 0 -160 33.5t-124.5 95.5t-72.5 157.5t-2 210.5zM430 1335q9 53 55.5 92t102.5 39t89.5 -39t24.5 -92 q-9 -58 -54 -98.5t-101 -40.5q-57 0 -91.5 40.5t-25.5 98.5zM821 1333q9 55 56 94t106 39q54 0 88 -39t25 -94q-9 -57 -54.5 -97t-101.5 -40q-59 0 -93.5 40t-25.5 97z" />
<glyph unicode="&#xfd;" horiz-adv-x="1179" d="M-63 -512l53 324q123 0 200 33.5t125 113.5l33 57l-262 998h328l139 -680l332 680h368l-643 -1157q-79 -140 -179.5 -222.5t-217.5 -114.5t-276 -32zM555 1188l188 299h254l-225 -299h-217z" />
<glyph unicode="&#xfe;" horiz-adv-x="1294" d="M-41 -512l326 2048h329l-102 -643q142 139 326 139q130 0 227.5 -68t142 -188.5t21.5 -267.5q-36 -232 -183 -379t-366 -147q-192 0 -289 139l-102 -633h-330zM451 508q-17 -105 37.5 -173.5t150.5 -68.5t168.5 68.5t87.5 173.5q17 105 -33 173.5t-145 68.5 q-97 0 -174 -69t-92 -173z" />
<glyph unicode="&#xff;" horiz-adv-x="1179" d="M-63 -512l53 324q123 0 200 33.5t125 113.5l33 57l-262 998h328l139 -680l332 680h368l-643 -1157q-79 -140 -179.5 -222.5t-217.5 -114.5t-276 -32zM356 1341q9 53 55.5 92.5t102.5 39.5t90 -39.5t25 -92.5q-9 -58 -54.5 -98.5t-101.5 -40.5q-57 0 -91.5 40.5 t-25.5 98.5zM748 1339q9 56 56 95t105 39q54 0 88 -39.5t25 -94.5q-9 -57 -54.5 -97t-101.5 -40q-58 0 -92.5 40t-25.5 97z" />
<glyph unicode="&#x152;" horiz-adv-x="1955" d="M98 717q25 154 98 284.5t186 227t271 151t344 54.5h1041l-49 -312h-689l-40 -248h669l-47 -311h-672l-39 -252h689l-48 -311h-1040q-222 0 -388 93.5t-242.5 258t-43.5 365.5zM451 717q-27 -164 73.5 -266.5t302.5 -102.5l115 739q-200 0 -333 -103.5t-158 -266.5z" />
<glyph unicode="&#x153;" horiz-adv-x="1982" d="M66 506q36 222 213.5 375t408.5 153q107 0 199.5 -43t156.5 -119q177 162 420 162q117 0 213 -42.5t157 -122t81 -193t-14 -254.5h-760q12 -82 69.5 -127t139.5 -45q148 0 233 88l182 -162q-165 -196 -469 -196q-108 0 -198.5 41t-153.5 114q-171 -155 -424 -155 q-141 0 -253.5 70t-168 192t-32.5 264zM391 506q-15 -89 38.5 -151t141.5 -62q92 0 163 61.5t85 151.5q13 91 -39 153t-141 62q-91 0 -163 -62t-85 -153zM1178 612h446q-15 76 -68 117t-131 41q-77 0 -143.5 -42.5t-103.5 -115.5z" />
<glyph unicode="&#x178;" horiz-adv-x="1380" d="M156 1434h376l207 -535l348 535h433l-648 -867l-86 -567h-348l86 567zM520 1755q9 53 55.5 92t102.5 39q57 0 90.5 -39t24.5 -92q-9 -58 -54.5 -98.5t-101.5 -40.5q-57 0 -91.5 40.5t-25.5 98.5zM911 1753q9 55 56 94t106 39q54 0 88 -39t25 -94q-9 -57 -54.5 -97 t-101.5 -40q-59 0 -93.5 40t-25.5 97z" />
<glyph unicode="&#x2c6;" horiz-adv-x="667" d="M106 1186l265 293h235l168 -293h-231l-78 147l-127 -147h-232z" />
<glyph unicode="&#x2dc;" horiz-adv-x="591" d="M129 1311l111 119q40 -44 92 -44q42 0 115 32t122 32q105 0 170 -100l-110 -119q-32 47 -97 47q-37 0 -111 -32t-122 -32q-51 0 -99.5 30t-70.5 67z" />
<glyph unicode="&#x2000;" horiz-adv-x="959" />
<glyph unicode="&#x2001;" horiz-adv-x="1919" />
<glyph unicode="&#x2002;" horiz-adv-x="959" />
<glyph unicode="&#x2003;" horiz-adv-x="1919" />
<glyph unicode="&#x2004;" horiz-adv-x="639" />
<glyph unicode="&#x2005;" horiz-adv-x="479" />
<glyph unicode="&#x2006;" horiz-adv-x="319" />
<glyph unicode="&#x2007;" horiz-adv-x="319" />
<glyph unicode="&#x2008;" horiz-adv-x="239" />
<glyph unicode="&#x2009;" horiz-adv-x="383" />
<glyph unicode="&#x200a;" horiz-adv-x="106" />
<glyph unicode="&#x2010;" horiz-adv-x="892" d="M45 408l49 301h768l-47 -301h-770z" />
<glyph unicode="&#x2011;" horiz-adv-x="892" d="M45 408l49 301h768l-47 -301h-770z" />
<glyph unicode="&#x2012;" horiz-adv-x="892" d="M45 408l49 301h768l-47 -301h-770z" />
<glyph unicode="&#x2013;" horiz-adv-x="1042" d="M45 408l49 301h918l-47 -301h-920z" />
<glyph unicode="&#x2014;" horiz-adv-x="1413" d="M45 408l49 301h1290l-47 -301h-1292z" />
<glyph unicode="&#x2018;" horiz-adv-x="466" d="M137 981l168 453h248l-147 -453h-269z" />
<glyph unicode="&#x2019;" horiz-adv-x="466" d="M137 981l148 453h268l-168 -453h-248z" />
<glyph unicode="&#x201a;" horiz-adv-x="501" d="M-70 -319l148 452h303l-168 -452h-283z" />
<glyph unicode="&#x201c;" horiz-adv-x="837" d="M137 981l168 453h248l-147 -453h-269zM508 981l168 453h248l-148 -453h-268z" />
<glyph unicode="&#x201d;" horiz-adv-x="837" d="M137 981l148 453h268l-168 -453h-248zM508 981l147 453h269l-168 -453h-248z" />
<glyph unicode="&#x201e;" horiz-adv-x="905" d="M-70 -319l148 452h303l-168 -452h-283zM336 -319l147 452h303l-168 -452h-282z" />
<glyph unicode="&#x2022;" horiz-adv-x="579" d="M61 506q15 88 93.5 153.5t171.5 65.5t149.5 -65.5t42.5 -153.5q-15 -96 -92.5 -163t-171.5 -67t-151 67t-42 163z" />
<glyph unicode="&#x2026;" horiz-adv-x="1419" d="M6 158q11 65 70 113t129 48q69 0 111.5 -48t31.5 -113q-10 -73 -68 -122.5t-128 -49.5q-71 0 -113.5 49.5t-32.5 122.5zM553 158q11 65 70 113t129 48q62 0 103.5 -39.5t41.5 -97.5q19 58 74 97.5t119 39.5q69 0 111.5 -48t31.5 -113q-10 -72 -68.5 -122t-128.5 -50 q-65 0 -106 40.5t-41 104.5q-19 -64 -73 -104.5t-118 -40.5q-71 0 -113 49.5t-32 122.5z" />
<glyph unicode="&#x202f;" horiz-adv-x="383" />
<glyph unicode="&#x2039;" horiz-adv-x="665" d="M92 575l438 367l136 -160l-254 -207l178 -198l-176 -168z" />
<glyph unicode="&#x203a;" horiz-adv-x="667" d="M23 369l253 206l-178 199l176 168l322 -367l-436 -366z" />
<glyph unicode="&#x205f;" horiz-adv-x="479" />
<glyph unicode="&#x20ac;" horiz-adv-x="1646" d="M68 524l22 150h139l7 43q4 26 8 41h-140l23 149h160q97 244 310 395.5t488 151.5q222 0 368.5 -102t213.5 -281l-336 -158q-36 88 -116 140.5t-187 52.5t-204.5 -54t-161.5 -145h344l-23 -149h-391q-1 -7 -4 -20.5t-4 -20.5q-4 -28 -4 -43h389l-25 -150h-342 q36 -90 116 -143t187 -53q108 0 206.5 54t160.5 144l287 -157q-266 -389 -707 -389q-234 0 -412 155t-209 389h-163z" />
<glyph unicode="&#x2122;" horiz-adv-x="1050" d="M178 1239l15 92h387l-15 -92h-139l-55 -350h-107l55 350h-141zM539 889l69 442h117l98 -244l170 244h127l-69 -442h-109l41 260l-137 -188h-82l-76 188l-41 -260h-108z" />
<glyph unicode="&#x25fc;" horiz-adv-x="1013" d="M0 0v1014h1014v-1014h-1014z" />
<glyph unicode="&#xfb01;" horiz-adv-x="1286" d="M76 729l45 285h170q17 108 55.5 195t91.5 144t113.5 97t130.5 61t132.5 30t129.5 9q165 0 330 -59l-90 -313q-112 55 -264 55q-49 0 -93.5 -9.5t-88 -32.5t-74.5 -67.5t-41 -107.5v-2h655l-160 -1014h-332l115 729h-323l-115 -729h-332l115 729h-170z" />
<glyph unicode="&#xfb02;" horiz-adv-x="1447" d="M76 729l45 285h174l2 16q20 124 70 219.5t113 151t144.5 90.5t154.5 47t153 12q142 0 245.5 -47.5t163.5 -116.5l-149 -948q-11 -72 23.5 -105t95.5 -36q44 -4 88 6l-47 -285q-104 -22 -176 -22q-175 0 -264 101t-62 278l139 868q-48 10 -94 10q-45 0 -86 -11.5t-79 -36 t-64.5 -68.5t-36.5 -103l-4 -20h192l-45 -285h-192l-115 -729h-332l117 729h-174z" />
<glyph unicode="&#xfb03;" horiz-adv-x="1943" d="M76 729l45 285h170q86 536 620 536q74 0 161 -20.5t149 -61.5q135 82 346 82q71 0 163.5 -17.5t147.5 -37.5l-90 -317q-126 59 -248 59q-48 0 -87 -9.5t-76.5 -32.5t-63 -68t-35.5 -111v-2h655l-159 -1014h-332l114 729h-323l-115 -729h-330l115 729h-328l-114 -729h-330 l115 729h-170zM621 1014h327q15 100 60 196q-66 27 -123 27q-229 0 -264 -221v-2z" />
</font>
</defs>
</svg>
