<?xml version="1.0" standalone="no"?>
<!DOCTYPE svg PUBLIC "-//W3C//DTD SVG 1.1//EN" "http://www.w3.org/Graphics/SVG/1.1/DTD/svg11.dtd" >
<svg xmlns="http://www.w3.org/2000/svg" xmlns:xlink="http://www.w3.org/1999/xlink" version="1.1">
<metadata></metadata>
<defs>
<font id="okta_neueultralight" horiz-adv-x="1257" >
<font-face units-per-em="2048" ascent="1536" descent="-512" />
<missing-glyph horiz-adv-x="432" />
<glyph horiz-adv-x="0" />
<glyph horiz-adv-x="682" />
<glyph unicode=" "  horiz-adv-x="432" />
<glyph unicode="&#x09;" horiz-adv-x="432" />
<glyph unicode="&#xa0;" horiz-adv-x="432" />
<glyph unicode="!" horiz-adv-x="241" d="M61 51q0 23 17.5 40.5t42.5 17.5t42 -17.5t17 -40.5q0 -26 -17 -43.5t-42 -17.5t-42.5 17.5t-17.5 43.5zM86 291v1143h70v-1143h-70z" />
<glyph unicode="&#x22;" horiz-adv-x="329" d="M61 1434h62l-2 -508h-58zM205 1434h63l-4 -508h-55z" />
<glyph unicode="#" horiz-adv-x="1724" d="M61 266l19 68h414l131 491h-414l18 68h414l117 436h67l-118 -436h487l119 436h65l-116 -436l399 2l-21 -68h-397l-133 -491h401l-18 -68h-399l-121 -442h-66l119 442h-487l-119 -442h-68l121 442zM559 334l488 2l131 491l-488 -2z" />
<glyph unicode="$" horiz-adv-x="1232" d="M82 338l65 18q97 -297 449 -313v655q-71 12 -130 27.5t-122.5 44t-107 65.5t-71.5 94.5t-28 127.5q0 169 132.5 280.5t326.5 116.5v111h43v-111q177 -7 295.5 -98.5t165.5 -243.5l-64 -20q-43 135 -141.5 214.5t-255.5 86.5v-641q55 -8 95.5 -15.5t91 -19t87.5 -26 t76.5 -34.5t67 -46t50 -59t33.5 -75.5t11 -93.5q0 -124 -70 -216.5t-185 -139t-257 -47.5v-111h-43v111q-191 8 -325.5 97t-188.5 261zM205 1055q0 -55 22.5 -100.5t58 -76.5t88.5 -55t105.5 -39t116.5 -26v635q-172 -4 -281.5 -101.5t-109.5 -236.5zM639 43 q195 2 318.5 93.5t123.5 248.5q0 64 -24.5 113.5t-62 80t-99.5 54t-118 35.5t-138 24v-649z" />
<glyph unicode="%" horiz-adv-x="1632" d="M102 1071q0 157 92 260t240 103q146 0 238 -103t92 -260t-92 -259.5t-238 -102.5q-148 0 -240 102.5t-92 259.5zM156 1071q0 -132 77.5 -219.5t200.5 -87.5q122 0 200.5 87.5t78.5 219.5q0 133 -78.5 221t-200.5 88q-123 0 -200.5 -87.5t-77.5 -221.5zM434 -41l694 1516 h58l-694 -1516h-58zM866 362q0 157 93 260t239 103t239 -103t93 -260t-93 -259.5t-239 -102.5t-239 102.5t-93 259.5zM920 362q0 -133 77.5 -220t200.5 -87t201 87t78 220t-78 220.5t-201 87.5t-200.5 -87.5t-77.5 -220.5z" />
<glyph unicode="&#x26;" horiz-adv-x="1323" d="M41 303q0 60 22 116t56.5 100.5t86 89t103 80.5t113.5 77q11 7 16 10q-52 55 -81.5 88t-73 91t-65 113.5t-21.5 109.5q0 123 90.5 209t230.5 86q97 0 169 -43t106 -106.5t34 -135.5q0 -113 -67.5 -207.5t-227.5 -212.5l488 -514q54 74 97.5 165.5t60.5 170.5h73 q-57 -219 -184 -387l188 -203h-79l-148 156q-86 -110 -222 -170t-286 -60q-127 0 -233.5 41t-176 128.5t-69.5 207.5zM111 307q0 -100 58 -173.5t149 -108.5t200 -35q139 0 266.5 58t198.5 157l-500 528q-10 -7 -59 -40t-65.5 -45t-59.5 -44.5t-61 -51.5t-48.5 -52.5 t-43.5 -60.5t-24 -62t-11 -70zM262 1176q0 -46 22.5 -98.5t64 -105t71 -85.5t72.5 -76q144 102 208 191t64 184t-66.5 162t-179.5 67q-106 0 -181 -69t-75 -170z" />
<glyph unicode="'" horiz-adv-x="184" d="M61 1434h62l-2 -508h-58z" />
<glyph unicode="(" horiz-adv-x="382" d="M113 705q0 511 139 919h70q-142 -417 -142 -922q0 -503 142 -892h-70q-139 381 -139 895z" />
<glyph unicode=")" horiz-adv-x="382" d="M61 -190q140 383 140 892q0 511 -140 922h70q139 -408 139 -919q0 -514 -139 -895h-70z" />
<glyph unicode="*" horiz-adv-x="743" d="M68 1102v47l270 2l-133 233l43 25l123 -238l141 228l41 -23l-143 -223l266 6v-47l-268 -2l129 -233l-41 -25l-123 238l-154 -244l-37 22l152 240z" />
<glyph unicode="+" horiz-adv-x="944" d="M82 659v64h358v358h64v-358h358v-64h-358v-358h-64v358h-358z" />
<glyph unicode="," horiz-adv-x="169" d="M2 -295l96 379h66l-98 -379h-64z" />
<glyph unicode="-" horiz-adv-x="862" d="M61 526v64h740v-64h-740z" />
<glyph unicode="." horiz-adv-x="241" d="M61 51q0 23 17.5 40.5t42.5 17.5t42 -17.5t17 -40.5q0 -26 -17 -43.5t-42 -17.5t-42.5 17.5t-17.5 43.5z" />
<glyph unicode="/" horiz-adv-x="716" d="M61 -164l533 1864h61l-532 -1864h-62z" />
<glyph unicode="0" horiz-adv-x="1228" d="M104 717q0 213 61 375t177 252t272 90t272 -90t177 -252t61 -375t-61 -375t-177 -252t-272 -90t-272 90t-177 252t-61 375zM172 717q0 -296 117.5 -472.5t324.5 -176.5q137 0 237.5 81t152 227t51.5 341t-51.5 341t-152 227t-237.5 81q-207 0 -324.5 -176.5 t-117.5 -472.5z" />
<glyph unicode="1" horiz-adv-x="477" d="M33 1149v63q198 0 200 222h70v-1434h-70v1247q-27 -53 -83.5 -76.5t-116.5 -21.5z" />
<glyph unicode="2" horiz-adv-x="1081" d="M82 0v61l512 480q57 53 88 83.5t78 85.5t72 99.5t44 105.5t19 123q0 164 -95 262.5t-253 98.5q-150 0 -252.5 -91t-120.5 -225l-68 13q22 160 143.5 264t297.5 104q187 0 301.5 -114t114.5 -308q0 -52 -12 -103.5t-28 -92t-46 -86.5t-53 -76t-62 -70.5t-59.5 -60 t-59.5 -55.5l-463 -435h815v-63h-913z" />
<glyph unicode="3" horiz-adv-x="1114" d="M74 334l69 10q20 -140 130.5 -223.5t273.5 -83.5q180 0 291.5 95t111.5 249t-105.5 242t-295.5 88h-49v55h49q167 0 262.5 83t95.5 222q0 146 -98.5 238t-253.5 92q-141 0 -243 -75.5t-134 -203.5l-65 13q29 145 151.5 237t290.5 92q185 0 302.5 -109.5t117.5 -277.5 q0 -128 -70 -216.5t-194 -117.5q148 -31 229.5 -125.5t81.5 -238.5q0 -181 -131.5 -294.5t-343.5 -113.5q-191 0 -319 99t-154 264z" />
<glyph unicode="4" horiz-adv-x="1126" d="M55 332v59l430 1043h72l-430 -1043h702v709h68v-709h178v-59h-178v-332h-68v332h-774z" />
<glyph unicode="5" horiz-adv-x="1126" d="M86 358l68 19q20 -153 132.5 -247.5t274.5 -94.5q183 0 298.5 112.5t115.5 290.5q0 174 -114.5 282.5t-280.5 108.5q-117 0 -208.5 -42t-148.5 -117l-59 32l43 732h725v-64h-664l-35 -608q129 129 353 129q123 0 226.5 -55t166.5 -159.5t63 -236.5q0 -210 -134.5 -340.5 t-346.5 -130.5q-182 0 -314.5 107.5t-160.5 281.5z" />
<glyph unicode="6" horiz-adv-x="1099" d="M68 438q0 142 75 333t194.5 368.5t248.5 294.5h86q-134 -114 -271.5 -318t-207.5 -403q61 77 155.5 121t208.5 45q131 1 239.5 -53.5t173 -157t64.5 -232.5q0 -204 -140 -335.5t-345 -131.5q-207 0 -344 131t-137 338zM135 432q0 -171 118.5 -284t295.5 -113t297.5 112 t120.5 285q0 175 -119.5 282t-298.5 107q-178 0 -296 -107t-118 -282z" />
<glyph unicode="7" horiz-adv-x="1034" d="M47 1370v64h903v-64l-588 -1370h-71l588 1370h-832z" />
<glyph unicode="8" horiz-adv-x="1118" d="M84 377q0 144 81.5 239.5t229.5 126.5q-124 29 -194 117.5t-70 216.5q0 169 119 278t309 109q191 0 310.5 -109t119.5 -278q0 -128 -70 -216.5t-196 -117.5q149 -31 230 -126t81 -240q0 -178 -131.5 -292t-343.5 -114q-211 0 -343 114t-132 292zM154 381 q0 -154 112.5 -249t292.5 -95t293 95.5t113 248.5q0 155 -106 241.5t-300 86.5t-299.5 -86.5t-105.5 -241.5zM199 1071q0 -140 96 -221.5t264 -81.5t264.5 81.5t96.5 221.5q0 147 -99.5 238.5t-261.5 91.5q-161 0 -260.5 -91.5t-99.5 -238.5z" />
<glyph unicode="9" horiz-adv-x="1107" d="M68 967q0 204 140 335.5t345 131.5q207 0 344 -131t137 -338q0 -118 -45 -254.5t-119.5 -263.5t-165 -241.5t-188.5 -205.5h-86q141 125 277.5 311t205.5 381q-62 -80 -157 -124.5t-211 -45.5q-200 -3 -338.5 123t-138.5 322zM135 971q0 -175 119.5 -282t298.5 -107 q178 0 296 107t118 282q0 171 -118.5 284t-295.5 113t-297.5 -112t-120.5 -285z" />
<glyph unicode=":" horiz-adv-x="239" d="M61 57q0 23 17.5 39.5t40.5 16.5q25 0 42 -16.5t17 -39.5q0 -25 -17 -42t-42 -17q-23 0 -40.5 17t-17.5 42zM61 989q0 23 17.5 40.5t40.5 17.5q25 0 42 -17.5t17 -40.5q0 -25 -17 -41t-42 -16q-24 0 -41 16.5t-17 40.5z" />
<glyph unicode=";" horiz-adv-x="260" d="M20 -295l97 379h65l-98 -379h-64zM84 989q0 24 16 41t39 17q26 0 43 -17t17 -41q0 -25 -17 -41t-43 -16q-23 0 -39 16t-16 41z" />
<glyph unicode="&#x3c;" horiz-adv-x="972" d="M225 664v32l645 357v-64l-557 -309l557 -315v-64z" />
<glyph unicode="=" horiz-adv-x="1110" d="M119 514v53h872v-53h-872zM119 815v53h872v-53h-872z" />
<glyph unicode="&#x3e;" horiz-adv-x="849" d="M102 301v64l557 315l-557 309v64l646 -357v-32z" />
<glyph unicode="?" horiz-adv-x="1134" d="M102 1163q47 126 169.5 212.5t287.5 86.5q104 0 194 -34t150 -90t94.5 -128.5t34.5 -150.5q0 -92 -24.5 -162t-63 -113.5t-85.5 -80t-94 -72.5t-85.5 -78t-63 -109t-24.5 -155h-64q0 93 24 165t62.5 117t85 82t92.5 73t84.5 77t62.5 105.5t24 148.5q0 133 -114.5 235.5 t-289.5 102.5q-142 0 -245 -71.5t-146 -178.5zM500 51q0 23 17 40.5t42 17.5q26 0 44 -17t18 -41q0 -26 -18 -43.5t-44 -17.5q-25 0 -42 17.5t-17 43.5z" />
<glyph unicode="@" horiz-adv-x="1705" d="M74 449q14 157 87.5 301t187 248.5t263.5 166.5t310 62q158 0 296.5 -61t234.5 -164t146 -248t37 -305q-24 -269 -155 -400q-23 -24 -58 -39.5t-73 -20t-75 7t-65 37t-43.5 74t-9.5 113.5l2 15q-63 -107 -167 -171.5t-226 -64.5q-181 0 -288.5 131.5t-90.5 319.5 q17 191 147 321.5t310 130.5q121 0 214 -64.5t138 -172.5l18 227h60l-60 -672q-5 -59 10 -99.5t42.5 -57t60 -19t63 9.5t50.5 33q68 77 97.5 161t39.5 200q10 120 -17 230.5t-86.5 198t-142.5 153t-190 101t-226 35.5q-196 0 -370 -95.5t-284.5 -261t-127.5 -361.5 q-18 -197 63.5 -363t239.5 -262t355 -96q160 0 325 73l21 -49q-180 -84 -353 -84q-212 0 -382.5 105t-258.5 284.5t-69 391.5zM440 451q-14 -169 81 -284.5t253 -115.5q151 0 264 108t138 269l4 55q3 157 -91 262t-245 105q-158 0 -273.5 -115t-130.5 -284z" />
<glyph unicode="A" horiz-adv-x="1345" d="M29 0l596 1434h77l617 -1434h-76l-147 342h-848l-144 -342h-75zM272 408h797l-403 942h-4z" />
<glyph unicode="B" horiz-adv-x="1208" d="M170 0v1434h514q64 0 123 -12.5t111.5 -41t91.5 -70.5t61.5 -104.5t22.5 -138.5q0 -135 -63.5 -218.5t-172.5 -119.5q118 -34 193 -121.5t75 -228.5q0 -78 -25 -142.5t-66 -107.5t-96 -73t-113.5 -43t-120.5 -13h-535zM240 63h462q66 0 127 18.5t113 55t83.5 99.5 t31.5 145t-31.5 144.5t-83.5 98.5t-113 54t-127 18h-462v-633zM240 756h444q71 0 130.5 17t108 52t76 95.5t27.5 142.5q0 81 -28 142t-77.5 96t-108.5 52t-128 17h-444v-614z" />
<glyph unicode="C" horiz-adv-x="1521" d="M92 717q0 151 55 287t150 235t229 157t285 58q207 0 375 -106t258 -283l-62 -33q-84 160 -235 256t-336 96q-181 0 -330.5 -90t-234 -243t-84.5 -334q0 -182 84.5 -335t234 -243t330.5 -90q187 0 339.5 98t233.5 261l64 -33q-90 -179 -259.5 -287t-377.5 -108 q-151 0 -285 58t-229 157t-150 235t-55 287z" />
<glyph unicode="D" horiz-adv-x="1429" d="M170 0v1434h479q143 0 268 -48.5t218.5 -138.5t147.5 -226t54 -302t-54 -303t-147.5 -227t-218.5 -139.5t-268 -49.5h-479zM240 70h407q132 0 245.5 44.5t197 126.5t131 205t47.5 273t-47.5 273t-131 204t-197 125.5t-245.5 44.5l-407 -2v-1294z" />
<glyph unicode="E" horiz-adv-x="1157" d="M170 0v1434h901v-66h-831v-616h815v-64h-815v-622h831v-66h-901z" />
<glyph unicode="F" horiz-adv-x="1157" d="M170 0v1434h901v-66h-831v-625h815v-65h-815v-678h-70z" />
<glyph unicode="G" horiz-adv-x="1552" d="M92 717q0 151 55.5 287t151 235t229.5 157t285 58q217 0 379.5 -104.5t253.5 -284.5l-62 -33q-83 163 -229.5 257.5t-343.5 94.5q-135 0 -256 -53t-207 -142.5t-136 -212.5t-50 -259q0 -181 85 -334.5t234.5 -243.5t329.5 -90q226 0 378.5 101.5t217.5 291.5v193h-481v67 h553v-282q-73 -213 -247.5 -326.5t-418.5 -113.5q-151 0 -285 58t-229.5 157t-151 235t-55.5 287z" />
<glyph unicode="H" horiz-adv-x="1419" d="M170 0v1434h70v-682h940v682h69v-1434h-69v684h-940v-684h-70z" />
<glyph unicode="I" horiz-adv-x="409" d="M170 0v1434h70v-1434h-70z" />
<glyph unicode="J" horiz-adv-x="1032" d="M82 80l35 57q114 -88 264 -88q197 0 315.5 123t118.5 369v893h70v-902q0 -137 -37.5 -243t-105 -173t-159 -101.5t-202.5 -34.5q-175 0 -299 100z" />
<glyph unicode="K" horiz-adv-x="1271" d="M170 0v1434h70v-680h376l531 680h86l-555 -713l575 -721h-88l-547 686h-378v-686h-70z" />
<glyph unicode="L" horiz-adv-x="1097" d="M170 0v1434h70v-1368h813v-66h-883z" />
<glyph unicode="M" horiz-adv-x="1753" d="M170 0v1434h80l627 -1121l624 1121h82v-1434h-70v1315l-606 -1082h-63l-604 1080v-1313h-70z" />
<glyph unicode="N" horiz-adv-x="1425" d="M170 0v1434h80l936 -1330v1330h69v-1434h-81l-934 1327v-1327h-70z" />
<glyph unicode="O" horiz-adv-x="1622" d="M92 717q0 151 55.5 287t151 235t229.5 157t285 58q149 0 282.5 -58t228.5 -157t150.5 -235t55.5 -287t-55.5 -287t-150.5 -235t-228.5 -157t-282.5 -58q-151 0 -285 58t-229.5 157t-151 235t-55.5 287zM162 717q0 -182 85 -335.5t234.5 -243t329.5 -89.5t329.5 89.5 t234.5 243t85 335.5t-85 335t-234.5 242.5t-329.5 89.5t-329.5 -89.5t-234.5 -242.5t-85 -335z" />
<glyph unicode="P" horiz-adv-x="1196" d="M170 0v1434h498q193 0 319.5 -117.5t126.5 -317.5t-126.5 -317t-319.5 -117h-428v-565h-70zM240 629h426q170 0 275.5 100.5t105.5 269.5t-105.5 270t-275.5 101h-426v-741z" />
<glyph unicode="Q" horiz-adv-x="1622" d="M92 717q0 151 55 287t150 235t229 157t285 58q199 0 364.5 -98.5t260 -268t94.5 -370.5t-94.5 -370.5t-260 -268t-364.5 -98.5q-81 0 -147 14q186 -85 398 -110q158 -19 336 -19q63 0 128 2v-66h-44q-142 0 -266 11q-144 13 -298.5 47t-295 103t-255.5 171 q-128 101 -201.5 254.5t-73.5 329.5zM162 717q0 -182 84.5 -335t234 -243t330.5 -90q179 0 328.5 90t235 243.5t85.5 334.5t-85.5 334.5t-235 243t-328.5 89.5q-181 0 -330.5 -90t-234 -243t-84.5 -334z" />
<glyph unicode="R" horiz-adv-x="1171" d="M170 0v1434h520q125 0 225 -47t160 -140t60 -217q0 -159 -93.5 -261.5t-246.5 -131.5l354 -637h-80l-344 629h-35h-450v-629h-70zM240 692h446q170 0 274.5 91.5t104.5 246.5q0 154 -104.5 247t-274.5 93h-446v-678z" />
<glyph unicode="S" horiz-adv-x="1222" d="M84 358l68 19q46 -163 179 -249.5t306 -86.5q189 0 309.5 88t120.5 240q0 43 -11.5 79.5t-28.5 62t-48.5 48t-58 36.5t-71 28.5t-74 21.5t-81 19.5t-78.5 19.5q-174 46 -220 63q-175 62 -231 175q-32 64 -32 149q0 165 136 276t337 111q181 0 303 -91t176 -269l-63 -19 q-101 314 -416 314q-180 0 -290.5 -95.5t-110.5 -228.5q0 -62 25 -110.5t53 -77t93 -56t99 -37.5t117 -31q35 -9 53 -14q22 -6 66.5 -16.5t70 -17t67 -19t66.5 -22.5t59.5 -27t55 -34.5t44 -42.5t36 -53t21 -64t8.5 -78q0 -122 -68 -213t-180.5 -136t-253.5 -45 q-127 0 -237.5 41t-196 129t-119.5 213z" />
<glyph unicode="T" horiz-adv-x="1198" d="M45 1370v64h1108v-64h-520v-1370h-70v1370h-518z" />
<glyph unicode="U" horiz-adv-x="1363" d="M145 514v920h70v-912q0 -139 63.5 -248.5t169.5 -168t234 -58.5t234 58.5t169.5 168t63.5 248.5v912h70v-920q0 -154 -71.5 -277t-193.5 -190t-272 -67t-272 67t-193.5 190t-71.5 277z" />
<glyph unicode="V" horiz-adv-x="1290" d="M25 1434h75l545 -1348l545 1348h76l-580 -1434h-80z" />
<glyph unicode="W" horiz-adv-x="1939" d="M39 1434h74l391 -1332l432 1332h68l432 -1332l391 1332h76l-426 -1434h-78l-428 1319l-430 -1319h-78z" />
<glyph unicode="X" horiz-adv-x="1185" d="M45 0l504 717l-502 717h84l461 -666l463 666h84l-500 -717l502 -717h-82l-465 666l-465 -666h-84z" />
<glyph unicode="Y" horiz-adv-x="1169" d="M23 1434h81l482 -781l481 781h80l-526 -850v-584h-70v580z" />
<glyph unicode="Z" horiz-adv-x="1191" d="M86 0v63l922 1305h-920v66h1004v-64l-922 -1304h956v-66h-1040z" />
<glyph unicode="[" horiz-adv-x="421" d="M86 -190v1814h274v-59h-208v-1696h208v-59h-274z" />
<glyph unicode="\" horiz-adv-x="716" d="M41 1700h61l533 -1864h-62z" />
<glyph unicode="]" horiz-adv-x="421" d="M61 -131h209v1696h-209v59h275v-1814h-275v59z" />
<glyph unicode="^" horiz-adv-x="874" d="M61 999l361 639h27l364 -639h-63l-316 549l-309 -549h-64z" />
<glyph unicode="_" horiz-adv-x="1196" d="M66 0h1064v-59h-1064v59z" />
<glyph unicode="`" horiz-adv-x="227" d="M-2 1460h63l170 -256h-59z" />
<glyph unicode="a" d="M82 506q0 218 146 368t358 150q158 0 279.5 -80.5t178.5 -214.5v285h68v-1014h-68v285q-57 -133 -179 -214t-279 -81q-139 0 -255 68.5t-182.5 187.5t-66.5 260zM150 506q0 -190 129 -322.5t317 -132.5t318 132.5t130 322.5t-130 323.5t-318 133.5t-317 -133.5 t-129 -323.5z" />
<glyph unicode="b" d="M145 0v1536h68v-807q57 133 178.5 214t278.5 81q140 0 256.5 -68.5t183 -187.5t66.5 -262q0 -142 -66.5 -260.5t-183 -187t-256.5 -68.5q-156 0 -278 81.5t-179 213.5v-285h-68zM213 506q0 -190 129 -322.5t317 -132.5q189 0 318 132.5t129 322.5t-129 323.5t-318 133.5 q-188 0 -317 -133.5t-129 -323.5z" />
<glyph unicode="c" horiz-adv-x="1097" d="M82 506q0 145 69.5 267t188.5 192.5t258 70.5q130 0 244 -61.5t182 -165.5l-55 -41q-59 94 -157.5 148.5t-213.5 54.5q-187 0 -317.5 -135.5t-130.5 -329.5q0 -192 130.5 -327.5t317.5 -135.5q116 0 216 54t159 147l55 -41q-71 -104 -185.5 -165t-244.5 -61 q-139 0 -258 71t-188.5 193t-69.5 265z" />
<glyph unicode="d" d="M82 506q0 143 66.5 262t183 187.5t256.5 68.5q157 0 278 -81t178 -214v807h68v-1536h-68v285q-57 -133 -178.5 -214t-277.5 -81q-140 0 -256.5 68.5t-183 187t-66.5 260.5zM152 506q0 -190 128.5 -322.5t317.5 -132.5q188 0 317 132.5t129 322.5t-129 323.5t-317 133.5 q-189 0 -317.5 -133.5t-128.5 -323.5z" />
<glyph unicode="e" horiz-adv-x="1185" d="M82 506q0 147 67.5 268.5t187 191.5t265.5 70q217 0 364 -138.5t156 -352.5v-49h-975q5 -194 136 -325.5t321 -131.5q124 0 223.5 46.5t161.5 131.5l47 -37q-70 -97 -183 -148.5t-251 -51.5q-143 0 -263 70.5t-188.5 191.5t-68.5 264zM150 557h909q-14 181 -141.5 299.5 t-315.5 118.5q-182 0 -307.5 -118.5t-144.5 -299.5z" />
<glyph unicode="f" horiz-adv-x="745" d="M51 952v62h264v258q0 134 72.5 200t190.5 66q57 0 129 -16l-11 -62q-60 13 -106 13q-94 0 -150.5 -50t-56.5 -161v-248h326v-62h-326v-952h-68v952h-264z" />
<glyph unicode="g" d="M82 506q0 143 66.5 262t183 187.5t256.5 68.5q155 0 277 -81t179 -214v285h68v-1002q0 -126 -41.5 -227t-112.5 -164.5t-161 -97.5t-191 -35h-7q-331 0 -490 270l51 45q69 -122 176.5 -185.5t269.5 -63.5q85 0 162 29t139.5 84t99.5 144t37 199v275q-55 -133 -177.5 -214 t-278.5 -81q-213 0 -359.5 149.5t-146.5 366.5zM152 506q0 -190 128 -322.5t316 -132.5t318 132.5t130 322.5t-130 323.5t-318 133.5t-316 -133.5t-128 -323.5z" />
<glyph unicode="h" horiz-adv-x="1142" d="M145 0v1536h68v-770q47 123 148.5 190.5t240.5 67.5q85 0 158.5 -29.5t132 -89t92 -159t33.5 -228.5v-518h-68v514q0 119 -30 208.5t-81.5 140.5t-112.5 75.5t-130 24.5q-174 0 -278.5 -118t-104.5 -333v-512h-68z" />
<glyph unicode="i" horiz-adv-x="342" d="M121 1307q0 20 14.5 34.5t34.5 14.5q22 0 36.5 -14.5t14.5 -34.5q0 -22 -14.5 -37t-36.5 -15q-20 0 -34.5 15t-14.5 37zM137 0v1014h68v-1014h-68z" />
<glyph unicode="j" horiz-adv-x="337" d="M-184 -496l12 64q48 -10 86 -10q95 0 153 52.5t58 160.5v1243h68v-1252q0 -134 -73.5 -202t-193.5 -68q-52 0 -110 12zM109 1307q0 20 14.5 33.5t34.5 13.5t34.5 -13.5t14.5 -33.5q0 -21 -14.5 -35.5t-34.5 -14.5t-34.5 14.5t-14.5 35.5z" />
<glyph unicode="k" horiz-adv-x="1058" d="M145 0v1536h68v-983h258l455 461h90l-490 -496l490 -518h-88l-459 487h-256v-487h-68z" />
<glyph unicode="l" horiz-adv-x="493" d="M145 223v1313h68v-1307q0 -82 38.5 -126t106.5 -44q26 0 80 15l13 -62q-62 -16 -107 -16q-92 0 -145.5 59t-53.5 168z" />
<glyph unicode="m" horiz-adv-x="1906" d="M145 0v1014h68v-246q52 127 150 191.5t233 64.5q85 0 157.5 -29t132.5 -100t87 -178q42 151 147 229t256 78q81 0 151.5 -27t129.5 -84.5t93 -158.5t34 -236v-518h-68v514q0 100 -20.5 179.5t-54.5 129.5t-80 82.5t-93.5 46t-99.5 13.5q-164 0 -266.5 -114.5 t-102.5 -336.5v-514h-67v514q0 100 -20.5 179.5t-54.5 129.5t-80 82.5t-93.5 46t-99.5 13.5q-163 0 -267 -115.5t-104 -339.5v-510h-68z" />
<glyph unicode="n" horiz-adv-x="1142" d="M145 0v1014h68v-248q47 123 148.5 190.5t240.5 67.5q85 0 158.5 -29.5t132 -89t92 -159t33.5 -228.5v-518h-68v514q0 119 -30 208.5t-81.5 140.5t-112.5 75.5t-130 24.5q-174 0 -278.5 -118t-104.5 -333v-512h-68z" />
<glyph unicode="o" horiz-adv-x="1214" d="M84 506q0 145 69.5 267t189.5 192.5t263 70.5q145 0 265.5 -70.5t189.5 -192.5t69 -267q0 -144 -69 -265.5t-189.5 -192.5t-265.5 -71q-107 0 -204 42t-166.5 113t-110.5 169t-41 205zM154 506q0 -193 130.5 -328t321.5 -135q192 0 323.5 135t131.5 328q0 194 -131 329.5 t-324 135.5q-191 0 -321.5 -135.5t-130.5 -329.5z" />
<glyph unicode="p" d="M145 -512v1526h68v-285q57 133 178.5 214t278.5 81q140 0 256.5 -68.5t183 -187.5t66.5 -262q0 -142 -66.5 -260.5t-183 -187t-256.5 -68.5q-156 0 -278 81.5t-179 213.5v-797h-68zM213 506q0 -190 129 -322.5t317 -132.5q189 0 318 132.5t129 322.5t-129 323.5 t-318 133.5q-188 0 -317 -133.5t-129 -323.5z" />
<glyph unicode="q" d="M82 506q0 218 146 368t358 150q158 0 279.5 -80.5t178.5 -214.5v285h68v-1526h-68v797q-57 -133 -179 -214t-279 -81q-139 0 -255 68.5t-182.5 187.5t-66.5 260zM152 506q0 -190 128 -322.5t316 -132.5t318 132.5t130 322.5t-130 323.5t-318 133.5t-316 -133.5 t-128 -323.5z" />
<glyph unicode="r" horiz-adv-x="655" d="M145 0v1014h68v-234q49 109 153 177q103 67 236 67h4v-70q-18 4 -53 4q-143 -9 -241.5 -116.5t-98.5 -257.5v-584h-68z" />
<glyph unicode="s" horiz-adv-x="997" d="M84 246l59 20q94 -239 379 -239q157 0 247.5 70.5t90.5 187.5q0 56 -27.5 93.5t-70.5 54.5t-104.5 28t-120 14.5t-126.5 14.5t-116 28q-164 63 -164 227q0 115 104 203t265 88q154 0 251.5 -76t129.5 -190l-60 -18q-72 227 -321 227q-134 0 -219.5 -71t-85.5 -163 q0 -76 43 -121.5t115 -62.5t148 -24.5t162.5 -20.5t137.5 -37q125 -59 125 -194q0 -140 -108.5 -228t-295.5 -88q-69 0 -132 14.5t-123 45.5t-108 86.5t-75 130.5z" />
<glyph unicode="t" horiz-adv-x="802" d="M47 952v62h264v295h68v-295h297v-62h-297v-698q0 -101 52.5 -149t141.5 -48q52 0 127 21l11 -60q-67 -22 -148 -22q-113 0 -182.5 62.5t-69.5 187.5v706h-264z" />
<glyph unicode="u" horiz-adv-x="1142" d="M125 496v518h68v-514q0 -119 30 -208.5t81.5 -140.5t112.5 -75.5t130 -24.5q174 0 278.5 118t104.5 333v512h67v-1014h-67v240h-4q-48 -118 -148.5 -184t-236.5 -66q-85 0 -158.5 29.5t-132 89t-92 159t-33.5 228.5z" />
<glyph unicode="v" horiz-adv-x="1034" d="M27 1014h71l418 -946l418 946h72l-451 -1014h-78z" />
<glyph unicode="w" horiz-adv-x="1611" d="M39 1014h72l315 -930l344 930h72l344 -930l315 930h72l-350 -1014h-74l-344 928l-342 -928h-74z" />
<glyph unicode="x" horiz-adv-x="976" d="M43 0l401 514l-401 500h82l364 -453l361 453h84l-402 -500l402 -514h-84l-361 469l-364 -469h-82z" />
<glyph unicode="y" horiz-adv-x="1013" d="M27 1014h71l420 -957l400 957h71l-532 -1262q-34 -81 -75.5 -134.5t-89 -80.5t-92.5 -37.5t-102 -11.5l8 66q97 2 167 49t118 161l92 220z" />
<glyph unicode="z" horiz-adv-x="1093" d="M106 0v61l785 891h-752v62h842v-62l-784 -891h809v-61h-900z" />
<glyph unicode="{" horiz-adv-x="442" d="M80 688v57h20q47 0 68.5 48.5t23 126t-3 171t-4 187.5t13 171.5t54.5 126t115 48.5h14v-57h-12q-52 0 -82 -43.5t-38.5 -114t-8 -156.5t3.5 -175t1 -164.5t-20 -129.5t-55 -67q37 -13 55 -67t20 -129.5t-1 -164.5t-3.5 -175t8 -156.5t38.5 -114t82 -43.5h12v-57h-14 q-73 0 -115.5 48.5t-55 126t-13.5 171t3.5 187t3 171t-23 126t-66.5 48.5h-20z" />
<glyph unicode="|" horiz-adv-x="266" d="M102 -410v2048h62v-2048h-62z" />
<glyph unicode="}" horiz-adv-x="442" d="M61 -133h13q60 0 91 58.5t34 147.5t1.5 195.5t-4.5 200t15 163.5t61 85q-43 15 -61 85t-15 163.5t4.5 200t-1.5 195.5t-34 147.5t-91 58.5h-13v57h15q73 0 115 -48.5t54.5 -126t12.5 -171t-4.5 -187.5t-3 -171.5t23 -126t68.5 -48.5h20v-57h-20q-40 0 -61.5 -37.5 t-24.5 -99.5t-2.5 -141t5.5 -161t-1 -161t-21 -141t-56 -99.5t-105 -37.5h-15v57z" />
<glyph unicode="~" horiz-adv-x="1112" d="M59 582q46 70 120.5 109.5t148.5 39.5q67 0 133 -18.5t110.5 -41t102.5 -41t110 -18.5q130 0 222 95l47 -41q-40 -52 -114 -84.5t-144 -32.5q-61 0 -125 18.5t-110.5 41t-108.5 41t-119 18.5q-66 0 -117.5 -30.5t-105.5 -94.5z" />
<glyph unicode="&#xa1;" horiz-adv-x="241" d="M61 983q0 26 17.5 43.5t42.5 17.5t42 -17.5t17 -43.5q0 -23 -17 -40t-42 -17t-42.5 17t-17.5 40zM86 -399v1142h70v-1142h-70z" />
<glyph unicode="&#xa2;" horiz-adv-x="1181" d="M104 514q0 215 142.5 367t347.5 161v162h47v-162q137 -6 250.5 -79t177.5 -193l-61 -33q-53 104 -150.5 168t-216.5 70v-918q123 6 222.5 73.5t152.5 176.5l61 -31q-62 -126 -178.5 -203t-257.5 -83v-123h-47v123q-134 6 -246.5 77t-178 189.5t-65.5 257.5zM174 514 q0 -121 55 -224t151.5 -164.5t213.5 -66.5v914q-178 -7 -299 -140t-121 -319z" />
<glyph unicode="&#xa3;" horiz-adv-x="1114" d="M53 0v61q78 72 119.5 141.5t58.5 175t5 259.5h-117v53h112q-12 127 -36 293q-19 127 21 236t135 176t227 67q143 0 247 -71t142 -181l-58 -30q-34 95 -122.5 156t-208.5 61q-114 0 -194 -60t-111.5 -153.5t-14.5 -200.5q27 -166 39 -293h467v-53h-467q11 -154 -5 -260 t-54.5 -175.5t-110.5 -140.5h907v-61h-981z" />
<glyph unicode="&#xa4;" horiz-adv-x="1110" d="M82 340l129 127q-78 85 -105.5 195t0 220.5t105.5 196.5l-129 127l41 39l127 -127q129 117 305.5 117t306.5 -117l127 127l39 -37l-127 -129q117 -131 117 -307t-117 -305l127 -127l-37 -41l-129 127q-130 -117 -306.5 -117t-305.5 117l-127 -127zM150.5 773 q0.5 -167 119.5 -286q119 -120 285.5 -119.5t286.5 119.5q118 117 117.5 284.5t-117.5 287.5q-119 118 -286 117.5t-286 -117.5q-120 -119 -119.5 -286z" />
<glyph unicode="&#xa5;" horiz-adv-x="1198" d="M80 1434h80l440 -742l438 742h80l-471 -793h357v-45h-371v-145h371v-45h-371v-406h-70v406h-370v45h370v145h-370v45h358z" />
<glyph unicode="&#xa6;" horiz-adv-x="266" d="M102 -410v848h62v-848h-62zM102 791v847h62v-847h-62z" />
<glyph unicode="&#xa7;" horiz-adv-x="419" d="M61 647q-4 78 36 150.5t96 124.5l40 -31q-2 -3 -27 -32t-30.5 -36.5t-23 -34t-23 -43t-10.5 -42.5t-4 -52q3 -52 30 -106t58.5 -95t60 -102t33.5 -125q7 -64 -28.5 -133t-92.5 -123l-41 35q31 35 42.5 49.5t32 45.5t27.5 59.5t5 60.5q-3 46 -22 91t-44 83.5t-50.5 77 t-44 85t-20.5 93.5zM123 1227q-6 60 24 124.5t80 112.5l43 -30q-50 -64 -73 -108.5t-19 -94.5q3 -43 21.5 -86t44 -81t50.5 -77.5t43.5 -89.5t20.5 -102q4 -77 -31 -147.5t-94 -121.5l-36 35q61 68 78 98q33 57 30 129q-2 46 -20.5 92t-44 85.5t-51 79.5t-44.5 87.5 t-22 94.5z" />
<glyph unicode="&#xa8;" horiz-adv-x="356" d="M0 1331q0 17 13 30t32 13t32 -13t13 -30t-13 -30t-32 -13t-32 13t-13 30zM272 1331q0 19 13.5 31t33.5 12q18 0 30.5 -12.5t12.5 -30.5q0 -17 -13 -30t-30 -13q-20 0 -33.5 12.5t-13.5 30.5z" />
<glyph unicode="&#xa9;" horiz-adv-x="1384" d="M61 508q0 129 50 246t134 201t201 134t246 50q175 0 320 -83t228 -228t83 -320q0 -129 -50 -246t-134 -201t-201 -134t-246 -50t-246 50t-201 134t-134 201t-50 246zM115 508q0 -157 77 -290t210 -210.5t290 -77.5t290 77.5t210.5 210.5t77.5 290t-77.5 290t-210.5 210 t-290 77q-118 0 -224.5 -45.5t-184 -123t-123 -184t-45.5 -224.5zM242 498q0 191 129 323.5t311 132.5q125 0 229 -63.5t162 -171.5l-47 -25q-48 96 -140 152.5t-204 56.5q-160 0 -275.5 -118.5t-115.5 -286.5q0 -167 115.5 -284.5t275.5 -117.5q116 0 210 60t142 161 l45 -24q-55 -112 -161.5 -180t-235.5 -68q-182 0 -311 133t-129 320z" />
<glyph unicode="&#xaa;" d="M82 506q0 218 146 368t358 150q158 0 279.5 -80.5t178.5 -214.5v285h68v-1014h-68v285q-57 -133 -179 -214t-279 -81q-139 0 -255 68.5t-182.5 187.5t-66.5 260zM150 506q0 -190 129 -322.5t317 -132.5t318 132.5t130 322.5t-130 323.5t-318 133.5t-317 -133.5 t-129 -323.5z" />
<glyph unicode="&#xab;" horiz-adv-x="761" d="M82 575l348 318l39 -37l-307 -281l307 -280l-37 -41zM313 575l351 318l38 -37l-309 -281l307 -280l-36 -41z" />
<glyph unicode="&#xac;" horiz-adv-x="978" d="M98 719v55h783v-299h-60v244h-723z" />
<glyph unicode="&#xad;" horiz-adv-x="862" d="M61 526v64h740v-64h-740z" />
<glyph unicode="&#xae;" horiz-adv-x="741" d="M61 1331q0 128 90.5 217.5t219.5 89.5q131 0 220 -88.5t89 -218.5q0 -132 -89.5 -220.5t-219.5 -88.5q-129 0 -219.5 90t-90.5 219zM90 1331q0 -118 82 -200t199 -82q118 0 199 80t81 202q0 117 -81.5 198t-198.5 81t-199 -81t-82 -198zM250 1126v414h129q60 0 95.5 -34 t35.5 -91q0 -47 -25 -79.5t-69 -41.5l69 -166l-30 -2l-70 164h-104v-164h-31zM281 1319h98q47 0 74.5 26t27.5 70t-27.5 70t-74.5 26h-98v-192z" />
<glyph unicode="&#xaf;" horiz-adv-x="456" d="M0 1307v51h463v-51h-463z" />
<glyph unicode="&#xb0;" horiz-adv-x="481" d="M41 1331q0 83 58 141t143 58t141.5 -57t56.5 -142t-57.5 -143t-140.5 -58q-85 0 -143 58t-58 143zM84 1331q0 -66 46.5 -111.5t111.5 -45.5t110 45.5t45 111.5q0 63 -45.5 109.5t-109.5 46.5t-111 -46.5t-47 -109.5z" />
<glyph unicode="&#xb1;" horiz-adv-x="944" d="M82 338v61h780v-61h-780zM82 809v61h358v359h64v-359h358v-61h-358v-360h-64v360h-358z" />
<glyph unicode="&#xb2;" horiz-adv-x="548" d="M45 809v31l256 239q35 32 56 53t46.5 53.5t37.5 67.5t12 74q0 83 -48.5 131.5t-128.5 48.5q-75 0 -126.5 -45t-59.5 -112l-35 6q12 81 72.5 133.5t148.5 52.5q94 0 151.5 -57.5t57.5 -155.5q0 -44 -14 -84t-44 -78t-47.5 -56t-53.5 -52l-234 -217h410v-33h-457z" />
<glyph unicode="&#xb3;" horiz-adv-x="561" d="M35 977l35 4q11 -71 64.5 -112.5t135.5 -41.5q91 0 148 48t57 124q0 78 -53.5 122t-147.5 44h-26v29h26q84 0 130.5 41t46.5 111q0 72 -49 117.5t-126 45.5q-71 0 -122 -37t-66 -102l-33 8q14 72 75.5 118t145.5 46q92 0 151.5 -54.5t59.5 -139.5q0 -63 -36 -108t-99 -58 q74 -13 115 -61.5t41 -121.5q0 -90 -65.5 -147t-172.5 -57q-94 0 -158 49.5t-77 132.5z" />
<glyph unicode="&#xb4;" horiz-adv-x="212" d="M0 1204l156 256h63l-160 -256h-59z" />
<glyph unicode="&#xb5;" horiz-adv-x="1286" d="M125 -512v1526h68v-512q0 -119 30 -209t81.5 -141t112.5 -76t130 -25q176 0 279.5 117t103.5 334v512h67v-649q0 -164 61.5 -242t203.5 -64v-59q-23 -2 -58 -2q-239 0 -264 285q-41 -143 -143.5 -218t-251.5 -75q-120 0 -215.5 65t-139.5 197v-764h-65z" />
<glyph unicode="&#xb6;" horiz-adv-x="862" d="M98 1014q0 96 33 178t85.5 133.5t114.5 80t122 28.5h329v-1844h-59v1784h-209v-1784h-61v998q-62 1 -124.5 31t-114 83t-84 135t-32.5 177z" />
<glyph unicode="&#xb7;" horiz-adv-x="241" d="M61 532q0 23 17.5 40.5t42.5 17.5t42 -17t17 -41q0 -26 -17 -43.5t-42 -17.5t-42.5 17.5t-17.5 43.5z" />
<glyph unicode="&#xb8;" horiz-adv-x="309" d="M-8 -270l35 24q42 -77 133 -71q53 3 82.5 33.5t29.5 76.5q0 58 -51.5 82.5t-130.5 1.5l27 127h39l-13 -82q73 12 124.5 -23t51.5 -106q0 -64 -44 -108t-115 -45q-60 -3 -105 25.5t-63 64.5z" />
<glyph unicode="&#xb9;" horiz-adv-x="247" d="M33 1384v31q96 0 98 111h35v-717h-35v623q-23 -48 -98 -48z" />
<glyph unicode="&#xba;" horiz-adv-x="1214" d="M84 506q0 145 69.5 267t189.5 192.5t263 70.5q145 0 265.5 -70.5t189.5 -192.5t69 -267q0 -144 -69 -265.5t-189.5 -192.5t-265.5 -71q-107 0 -204 42t-166.5 113t-110.5 169t-41 205zM154 506q0 -193 130.5 -328t321.5 -135q192 0 323.5 135t131.5 328q0 194 -131 329.5 t-324 135.5q-191 0 -321.5 -135.5t-130.5 -329.5z" />
<glyph unicode="&#xbb;" horiz-adv-x="761" d="M59 856l39 37l348 -318l-350 -321l-35 41l308 280zM291 856l41 37l348 -318l-350 -321l-37 41l307 280z" />
<glyph unicode="&#xbc;" horiz-adv-x="1177" d="M-102 -164l1122 1864h37l-1123 -1864h-36zM33 1303v30q96 0 98 111h35v-717h-35v623q-23 -47 -98 -47zM645 152v32l217 523h35l-217 -523h352v355h35v-355h88v-32h-88v-162h-35v162h-387z" />
<glyph unicode="&#xbd;" horiz-adv-x="1198" d="M-102 -164l1122 1864h37l-1123 -1864h-36zM33 1303v30q96 0 98 111h35v-717h-35v623q-23 -47 -98 -47zM694 -10v30l256 240q35 32 56 53t46.5 53.5t37.5 67.5t12 74q0 83 -48 131.5t-128 48.5q-75 0 -127 -45.5t-60 -112.5l-34 7q12 81 72.5 133.5t148.5 52.5 q94 0 151.5 -57.5t57.5 -155.5q0 -44 -14 -84t-45 -78.5t-47.5 -55.5t-53.5 -52l-234 -217h410v-33h-457z" />
<glyph unicode="&#xbe;" horiz-adv-x="1449" d="M35 895l35 4q11 -71 64.5 -112.5t135.5 -41.5q91 0 148 48t57 125q0 78 -53.5 121.5t-147.5 43.5h-26v29h26q84 0 130.5 41t46.5 111q0 72 -49 117.5t-126 45.5q-71 0 -122 -37t-66 -102l-33 8q14 72 75.5 118t145.5 46q92 0 151.5 -54.5t59.5 -139.5q0 -63 -36 -108 t-99 -58q75 -13 115.5 -61.5t40.5 -120.5q0 -90 -66 -147.5t-172 -57.5q-94 0 -158 49.5t-77 132.5zM170 -164l1122 1864h37l-1122 -1864h-37zM918 152v32l217 523h34l-217 -523h353v355h34v-355h88v-32h-88v-162h-34v162h-387z" />
<glyph unicode="&#xbf;" horiz-adv-x="1052" d="M61 4q0 92 24.5 162.5t63.5 114.5t86.5 81t94.5 72.5t86 77.5t63.5 108.5t24.5 153.5h69q0 -95 -24.5 -167t-63.5 -117t-86 -82t-94 -72t-86 -76t-63.5 -105t-24.5 -149q0 -133 115 -235.5t291 -102.5q141 0 244.5 72t144.5 178l65 -18q-45 -126 -168 -212.5t-288 -86.5 q-137 0 -247 58t-168.5 149.5t-58.5 195.5zM479 1012q0 26 18 43.5t44 17.5q24 0 40.5 -17.5t16.5 -43.5q0 -23 -17 -40.5t-40 -17.5q-26 0 -44 17t-18 41z" />
<glyph unicode="&#xc0;" horiz-adv-x="1345" d="M29 0l596 1434h77l617 -1434h-76l-147 342h-848l-144 -342h-75zM272 408h797l-403 942h-4zM463 1880h63l170 -256h-59z" />
<glyph unicode="&#xc1;" horiz-adv-x="1345" d="M29 0l596 1434h77l617 -1434h-76l-147 342h-848l-144 -342h-75zM272 408h797l-403 942h-4zM635 1624l156 256h63l-160 -256h-59z" />
<glyph unicode="&#xc2;" horiz-adv-x="1345" d="M29 0l596 1434h77l617 -1434h-76l-147 342h-848l-144 -342h-75zM272 408h797l-403 942h-4zM414 1624l217 254h65l217 -254h-63l-186 217l-187 -217h-63z" />
<glyph unicode="&#xc3;" horiz-adv-x="1345" d="M29 0l596 1434h77l617 -1434h-76l-147 342h-848l-144 -342h-75zM272 408h797l-403 942h-4zM449 1763l26 35q34 -51 94 -51q38 0 92.5 28.5t92.5 28.5q74 0 123 -63l-27 -37q-45 51 -98 51q-32 0 -87 -28.5t-96 -28.5q-38 0 -70.5 17.5t-49.5 47.5z" />
<glyph unicode="&#xc4;" horiz-adv-x="1345" d="M29 0l596 1434h77l617 -1434h-76l-147 342h-848l-144 -342h-75zM272 408h797l-403 942h-4zM483 1751q0 17 13 30t32 13t32 -13t13 -30t-13 -30t-32 -13t-32 13t-13 30zM756 1751q0 19 13.5 31t33.5 12q18 0 30.5 -12.5t12.5 -30.5q0 -17 -13 -30t-30 -13 q-20 0 -33.5 12.5t-13.5 30.5z" />
<glyph unicode="&#xc5;" horiz-adv-x="1345" d="M29 0l596 1434h77l617 -1434h-76l-147 342h-848l-144 -342h-75zM272 408h797l-403 942h-4zM532 1753q0 56 37 92.5t95 36.5q57 0 94 -36.5t37 -92.5q0 -57 -37 -95t-94 -38q-58 0 -95 38t-37 95zM573 1753q0 -39 26 -65.5t65 -26.5t64.5 26.5t25.5 65.5q0 37 -25.5 62.5 t-64.5 25.5t-65 -25.5t-26 -62.5z" />
<glyph unicode="&#xc6;" horiz-adv-x="1873" d="M29 0l825 1434h936v-66h-832v-616h777v-64h-777v-622h832v-66h-903v397h-549l-229 -397h-80zM373 463h514v891z" />
<glyph unicode="&#xc7;" horiz-adv-x="1521" d="M92 717q0 151 55 287t150 235t229 157t285 58q207 0 375 -106t258 -283l-62 -33q-84 160 -235 256t-336 96q-181 0 -330.5 -90t-234 -243t-84.5 -334q0 -182 84.5 -335t234 -243t330.5 -90q187 0 339.5 98t233.5 261l64 -33q-88 -176 -255 -284t-370 -111l-8 -54 q73 12 124.5 -23t51.5 -106q0 -64 -44.5 -108t-115.5 -45q-60 -3 -103.5 25t-61.5 65l32 24q42 -77 133 -71q53 3 84 34t31 76q0 58 -52.5 82.5t-129.5 1.5l20 99q-194 7 -353 107t-249 266.5t-90 363.5z" />
<glyph unicode="&#xc8;" horiz-adv-x="1157" d="M170 0v1434h901v-66h-831v-616h815v-64h-815v-622h831v-66h-901zM422 1880h63l170 -256h-59z" />
<glyph unicode="&#xc9;" horiz-adv-x="1157" d="M170 0v1434h901v-66h-831v-616h815v-64h-815v-622h831v-66h-901zM594 1624l156 256h63l-160 -256h-59z" />
<glyph unicode="&#xca;" horiz-adv-x="1157" d="M170 0v1434h901v-66h-831v-616h815v-64h-815v-622h831v-66h-901zM373 1624l217 254h65l217 -254h-63l-186 217l-187 -217h-63z" />
<glyph unicode="&#xcb;" horiz-adv-x="1157" d="M170 0v1434h901v-66h-831v-616h815v-64h-815v-622h831v-66h-901zM442 1751q0 17 13 30t32 13t32 -13t13 -30t-13 -30t-32 -13t-32 13t-13 30zM715 1751q0 19 13.5 31t33.5 12q18 0 30.5 -12.5t12.5 -30.5q0 -17 -13 -30t-30 -13q-20 0 -33.5 12.5t-13.5 30.5z" />
<glyph unicode="&#xcc;" horiz-adv-x="409" d="M2 1880h64l170 -256h-60zM170 0v1434h70v-1434h-70z" />
<glyph unicode="&#xcd;" horiz-adv-x="409" d="M170 0v1434h70v-1434h-70zM176 1624l156 256h63l-159 -256h-60z" />
<glyph unicode="&#xce;" horiz-adv-x="409" d="M-45 1624l217 254h66l217 -254h-64l-186 217l-187 -217h-63zM170 0v1434h70v-1434h-70z" />
<glyph unicode="&#xcf;" horiz-adv-x="409" d="M23 1751q0 17 13 30t32 13t32 -13t13 -30t-13 -30t-32 -13t-32 13t-13 30zM170 0v1434h70v-1434h-70zM295 1751q0 19 13.5 31t33.5 12q18 0 30.5 -12.5t12.5 -30.5q0 -17 -13 -30t-30 -13q-20 0 -33.5 12.5t-13.5 30.5z" />
<glyph unicode="&#xd0;" horiz-adv-x="1429" d="M14 688v55h156v691h479q143 0 268 -48.5t218.5 -138.5t147.5 -226t54 -302t-54 -303t-147.5 -227t-218.5 -139.5t-268 -49.5h-479v688h-156zM240 70h407q132 0 245.5 44.5t197 126.5t131 205t47.5 273t-47.5 273t-131 204t-197 125.5t-245.5 44.5l-407 -2v-621h446v-55 h-446v-618z" />
<glyph unicode="&#xd1;" horiz-adv-x="1425" d="M170 0v1434h80l936 -1330v1330h69v-1434h-81l-934 1327v-1327h-70zM512 1763l27 35q34 -51 94 -51q37 0 91 28.5t93 28.5q70 0 123 -63l-27 -37q-45 51 -98 51q-33 0 -88.5 -28.5t-95.5 -28.5q-37 0 -70.5 18t-48.5 47z" />
<glyph unicode="&#xd2;" horiz-adv-x="1622" d="M92 717q0 151 55.5 287t151 235t229.5 157t285 58q149 0 282.5 -58t228.5 -157t150.5 -235t55.5 -287t-55.5 -287t-150.5 -235t-228.5 -157t-282.5 -58q-151 0 -285 58t-229.5 157t-151 235t-55.5 287zM162 717q0 -182 85 -335.5t234.5 -243t329.5 -89.5t329.5 89.5 t234.5 243t85 335.5t-85 335t-234.5 242.5t-329.5 89.5t-329.5 -89.5t-234.5 -242.5t-85 -335zM610 1880h64l170 -256h-60z" />
<glyph unicode="&#xd3;" horiz-adv-x="1622" d="M92 717q0 151 55.5 287t151 235t229.5 157t285 58q149 0 282.5 -58t228.5 -157t150.5 -235t55.5 -287t-55.5 -287t-150.5 -235t-228.5 -157t-282.5 -58q-151 0 -285 58t-229.5 157t-151 235t-55.5 287zM162 717q0 -182 85 -335.5t234.5 -243t329.5 -89.5t329.5 89.5 t234.5 243t85 335.5t-85 335t-234.5 242.5t-329.5 89.5t-329.5 -89.5t-234.5 -242.5t-85 -335zM784 1624l156 256h64l-160 -256h-60z" />
<glyph unicode="&#xd4;" horiz-adv-x="1622" d="M92 717q0 151 55.5 287t151 235t229.5 157t285 58q149 0 282.5 -58t228.5 -157t150.5 -235t55.5 -287t-55.5 -287t-150.5 -235t-228.5 -157t-282.5 -58q-151 0 -285 58t-229.5 157t-151 235t-55.5 287zM162 717q0 -182 85 -335.5t234.5 -243t329.5 -89.5t329.5 89.5 t234.5 243t85 335.5t-85 335t-234.5 242.5t-329.5 89.5t-329.5 -89.5t-234.5 -242.5t-85 -335zM563 1624l217 254h66l217 -254h-64l-186 217l-186 -217h-64z" />
<glyph unicode="&#xd5;" horiz-adv-x="1622" d="M92 717q0 151 55.5 287t151 235t229.5 157t285 58q149 0 282.5 -58t228.5 -157t150.5 -235t55.5 -287t-55.5 -287t-150.5 -235t-228.5 -157t-282.5 -58q-151 0 -285 58t-229.5 157t-151 235t-55.5 287zM162 717q0 -182 85 -335.5t234.5 -243t329.5 -89.5t329.5 89.5 t234.5 243t85 335.5t-85 335t-234.5 242.5t-329.5 89.5t-329.5 -89.5t-234.5 -242.5t-85 -335zM596 1763l27 35q34 -51 94 -51q38 0 92 28.5t92 28.5q74 0 123 -63l-27 -37q-45 51 -98 51q-31 0 -86 -28.5t-96 -28.5q-38 0 -71 18t-50 47z" />
<glyph unicode="&#xd6;" horiz-adv-x="1622" d="M92 717q0 151 55.5 287t151 235t229.5 157t285 58q149 0 282.5 -58t228.5 -157t150.5 -235t55.5 -287t-55.5 -287t-150.5 -235t-228.5 -157t-282.5 -58q-151 0 -285 58t-229.5 157t-151 235t-55.5 287zM162 717q0 -182 85 -335.5t234.5 -243t329.5 -89.5t329.5 89.5 t234.5 243t85 335.5t-85 335t-234.5 242.5t-329.5 89.5t-329.5 -89.5t-234.5 -242.5t-85 -335zM631 1751q0 17 13 30t32 13t32 -13t13 -30t-13 -30t-32 -13t-32 13t-13 30zM903 1751q0 19 13.5 31t33.5 12q18 0 30.5 -12.5t12.5 -30.5q0 -17 -13 -30t-30 -13 q-20 0 -33.5 12.5t-13.5 30.5z" />
<glyph unicode="&#xd7;" horiz-adv-x="794" d="M100 436l252 252l-252 256l43 43l254 -254l254 254l43 -43l-252 -256l252 -252l-43 -45l-254 254l-254 -254z" />
<glyph unicode="&#xd8;" horiz-adv-x="1622" d="M92 717q0 151 55.5 287t151 235t229.5 157t285 58q155 0 293 -61l72 149h59l-84 -174q172 -93 274.5 -267t102.5 -384q0 -151 -55.5 -287t-150.5 -235t-228.5 -157t-282.5 -58q-159 0 -297 63l-72 -152h-59l84 175q-173 95 -275 268.5t-102 382.5zM162 717 q0 -189 91.5 -345.5t246.5 -242.5l575 1200q-126 55 -264 55q-180 0 -329.5 -89.5t-234.5 -242.5t-85 -335zM547 104q126 -55 264 -55q180 0 329.5 89.5t234.5 243t85 335.5q0 189 -91.5 345.5t-246.5 242.5z" />
<glyph unicode="&#xd9;" horiz-adv-x="1363" d="M145 514v920h70v-912q0 -139 63.5 -248.5t169.5 -168t234 -58.5t234 58.5t169.5 168t63.5 248.5v912h70v-920q0 -154 -71.5 -277t-193.5 -190t-272 -67t-272 67t-193.5 190t-71.5 277zM481 1880h64l170 -256h-60z" />
<glyph unicode="&#xda;" horiz-adv-x="1363" d="M145 514v920h70v-912q0 -139 63.5 -248.5t169.5 -168t234 -58.5t234 58.5t169.5 168t63.5 248.5v912h70v-920q0 -154 -71.5 -277t-193.5 -190t-272 -67t-272 67t-193.5 190t-71.5 277zM653 1624l156 256h63l-159 -256h-60z" />
<glyph unicode="&#xdb;" horiz-adv-x="1363" d="M145 514v920h70v-912q0 -139 63.5 -248.5t169.5 -168t234 -58.5t234 58.5t169.5 168t63.5 248.5v912h70v-920q0 -154 -71.5 -277t-193.5 -190t-272 -67t-272 67t-193.5 190t-71.5 277zM432 1624l217 254h66l217 -254h-64l-186 217l-186 -217h-64z" />
<glyph unicode="&#xdc;" horiz-adv-x="1363" d="M145 514v920h70v-912q0 -139 63.5 -248.5t169.5 -168t234 -58.5t234 58.5t169.5 168t63.5 248.5v912h70v-920q0 -154 -71.5 -277t-193.5 -190t-272 -67t-272 67t-193.5 190t-71.5 277zM502 1751q0 17 13 30t32 13t32 -13t13 -30t-13 -30t-32 -13t-32 13t-13 30zM774 1751 q0 19 13.5 31t33.5 12q18 0 30.5 -12.5t12.5 -30.5q0 -17 -13 -30t-30 -13q-20 0 -33.5 12.5t-13.5 30.5z" />
<glyph unicode="&#xdd;" horiz-adv-x="1169" d="M23 1434h81l482 -781l481 781h80l-526 -850v-584h-70v580zM559 1624l156 256h63l-160 -256h-59z" />
<glyph unicode="&#xde;" horiz-adv-x="1128" d="M170 0v1434h70v-283h360q193 0 318.5 -117t125.5 -317t-125.5 -317t-318.5 -117h-360v-283h-70zM240 348h356q170 0 274.5 100t104.5 269t-104.5 268.5t-274.5 99.5h-356v-737z" />
<glyph unicode="&#xdf;" horiz-adv-x="1384" d="M51 952v62h242v272q0 137 81.5 214t192.5 77q125 0 197 -70t72 -182q0 -63 -17.5 -115.5t-42.5 -89t-50 -70t-42.5 -74t-17.5 -85.5q0 -64 36 -110.5t93 -74.5t126 -52t138.5 -51.5t126.5 -64t93 -99t36 -146.5q0 -134 -99.5 -223.5t-273.5 -89.5q-154 0 -260.5 77 t-136.5 219l59 19q27 -122 113.5 -189t224.5 -67q147 0 227 72t80 184q0 73 -36 126.5t-93 85.5t-126 58t-138.5 52t-126.5 58t-93 85.5t-36 126.5q0 48 17.5 92.5t42.5 80.5t50 73t42.5 86.5t17.5 105.5q0 87 -54 137.5t-149 50.5q-84 0 -145.5 -58t-61.5 -165v-1290h-67 v952h-242z" />
<glyph unicode="&#xe0;" d="M82 506q0 218 146 368t358 150q158 0 279.5 -80.5t178.5 -214.5v285h68v-1014h-68v285q-57 -133 -179 -214t-279 -81q-139 0 -255 68.5t-182.5 187.5t-66.5 260zM150 506q0 -190 129 -322.5t317 -132.5t318 132.5t130 322.5t-130 323.5t-318 133.5t-317 -133.5 t-129 -323.5zM426 1460h63l170 -256h-59z" />
<glyph unicode="&#xe1;" d="M82 506q0 218 146 368t358 150q158 0 279.5 -80.5t178.5 -214.5v285h68v-1014h-68v285q-57 -133 -179 -214t-279 -81q-139 0 -255 68.5t-182.5 187.5t-66.5 260zM150 506q0 -190 129 -322.5t317 -132.5t318 132.5t130 322.5t-130 323.5t-318 133.5t-317 -133.5 t-129 -323.5zM598 1204l156 256h63l-160 -256h-59z" />
<glyph unicode="&#xe2;" d="M82 506q0 218 146 368t358 150q158 0 279.5 -80.5t178.5 -214.5v285h68v-1014h-68v285q-57 -133 -179 -214t-279 -81q-139 0 -255 68.5t-182.5 187.5t-66.5 260zM150 506q0 -190 129 -322.5t317 -132.5t318 132.5t130 322.5t-130 323.5t-318 133.5t-317 -133.5 t-129 -323.5zM379 1204l217 254h66l217 -254h-64l-186 217l-187 -217h-63z" />
<glyph unicode="&#xe3;" d="M82 506q0 218 146 368t358 150q158 0 279.5 -80.5t178.5 -214.5v285h68v-1014h-68v285q-57 -133 -179 -214t-279 -81q-139 0 -255 68.5t-182.5 187.5t-66.5 260zM150 506q0 -190 129 -322.5t317 -132.5t318 132.5t130 322.5t-130 323.5t-318 133.5t-317 -133.5 t-129 -323.5zM412 1343l26 35q34 -51 94 -51q38 0 92.5 28.5t92.5 28.5q74 0 123 -63l-27 -37q-45 51 -98 51q-31 0 -87 -28.5t-96 -28.5q-38 0 -70.5 17.5t-49.5 47.5z" />
<glyph unicode="&#xe4;" d="M82 506q0 218 146 368t358 150q158 0 279.5 -80.5t178.5 -214.5v285h68v-1014h-68v285q-57 -133 -179 -214t-279 -81q-139 0 -255 68.5t-182.5 187.5t-66.5 260zM150 506q0 -190 129 -322.5t317 -132.5t318 132.5t130 322.5t-130 323.5t-318 133.5t-317 -133.5 t-129 -323.5zM446 1331q0 17 13.5 30t32.5 13t32 -13t13 -30t-13 -30t-32 -13t-32.5 13t-13.5 30zM719 1331q0 19 13.5 31t33.5 12q18 0 30.5 -12.5t12.5 -30.5q0 -17 -13 -30t-30 -13q-20 0 -33.5 12.5t-13.5 30.5z" />
<glyph unicode="&#xe5;" d="M82 506q0 218 146 368t358 150q158 0 279.5 -80.5t178.5 -214.5v285h68v-1014h-68v285q-57 -133 -179 -214t-279 -81q-139 0 -255 68.5t-182.5 187.5t-66.5 260zM150 506q0 -190 129 -322.5t317 -132.5t318 132.5t130 322.5t-130 323.5t-318 133.5t-317 -133.5 t-129 -323.5zM496 1333q0 56 36.5 92.5t94.5 36.5q57 0 94 -36.5t37 -92.5q0 -57 -37 -95t-94 -38q-58 0 -94.5 37.5t-36.5 95.5zM537 1333q0 -39 25.5 -65.5t64.5 -26.5t64.5 26.5t25.5 65.5q0 37 -25.5 62.5t-64.5 25.5t-64.5 -25.5t-25.5 -62.5z" />
<glyph unicode="&#xe6;" horiz-adv-x="2166" d="M82 506q0 219 146.5 368.5t359.5 149.5q156 0 279.5 -85.5t176.5 -225.5v301h68v-297q56 142 183.5 228.5t287.5 86.5q140 0 256.5 -61t186.5 -172t77 -250v-53h-975q3 -193 134 -325t321 -132q123 0 224.5 46.5t164.5 131.5l45 -37q-72 -96 -184.5 -147t-249.5 -51 q-160 0 -287.5 87t-183.5 230v-299h-68v301q-54 -140 -177.5 -229.5t-278.5 -89.5q-140 0 -255.5 66.5t-183 187t-67.5 270.5zM152 506q0 -200 127.5 -331.5t318.5 -131.5q123 0 226 63.5t161.5 169.5t58.5 230t-58.5 228t-161 165.5t-226.5 61.5q-189 0 -317.5 -133 t-128.5 -322zM1130 551h908q-6 181 -135.5 303.5t-319.5 122.5q-185 0 -312 -122t-141 -304z" />
<glyph unicode="&#xe7;" horiz-adv-x="1097" d="M82 506q0 145 69.5 267t188.5 192.5t258 70.5q130 0 244 -61.5t182 -165.5l-55 -41q-59 94 -157.5 148.5t-213.5 54.5q-187 0 -317.5 -135.5t-130.5 -329.5q0 -192 130.5 -327.5t317.5 -135.5q116 0 216 54t159 147l55 -41q-70 -102 -181 -162.5t-239 -63.5l-8 -53 q73 12 124.5 -23t51.5 -106q0 -64 -44.5 -108t-115.5 -45q-60 -3 -103.5 25t-61.5 65l32 24q42 -77 133 -71q53 3 84 34t31 76q0 58 -52.5 82.5t-129.5 1.5l20 98q-203 12 -345 165.5t-142 363.5z" />
<glyph unicode="&#xe8;" horiz-adv-x="1185" d="M82 506q0 147 67.5 268.5t187 191.5t265.5 70q217 0 364 -138.5t156 -352.5v-49h-975q5 -194 136 -325.5t321 -131.5q124 0 223.5 46.5t161.5 131.5l47 -37q-70 -97 -183 -148.5t-251 -51.5q-143 0 -263 70.5t-188.5 191.5t-68.5 264zM150 557h909q-14 181 -141.5 299.5 t-315.5 118.5q-182 0 -307.5 -118.5t-144.5 -299.5zM399 1491h64l170 -256h-60z" />
<glyph unicode="&#xe9;" horiz-adv-x="1185" d="M82 506q0 147 67.5 268.5t187 191.5t265.5 70q217 0 364 -138.5t156 -352.5v-49h-975q5 -194 136 -325.5t321 -131.5q124 0 223.5 46.5t161.5 131.5l47 -37q-70 -97 -183 -148.5t-251 -51.5q-143 0 -263 70.5t-188.5 191.5t-68.5 264zM150 557h909q-14 181 -141.5 299.5 t-315.5 118.5q-182 0 -307.5 -118.5t-144.5 -299.5zM571 1235l156 256h64l-160 -256h-60z" />
<glyph unicode="&#xea;" horiz-adv-x="1185" d="M82 506q0 147 67.5 268.5t187 191.5t265.5 70q217 0 364 -138.5t156 -352.5v-49h-975q5 -194 136 -325.5t321 -131.5q124 0 223.5 46.5t161.5 131.5l47 -37q-70 -97 -183 -148.5t-251 -51.5q-143 0 -263 70.5t-188.5 191.5t-68.5 264zM150 557h909q-14 181 -141.5 299.5 t-315.5 118.5q-182 0 -307.5 -118.5t-144.5 -299.5zM352 1235l217 254h66l217 -254h-64l-186 217l-186 -217h-64z" />
<glyph unicode="&#xeb;" horiz-adv-x="1185" d="M82 506q0 147 67.5 268.5t187 191.5t265.5 70q217 0 364 -138.5t156 -352.5v-49h-975q5 -194 136 -325.5t321 -131.5q124 0 223.5 46.5t161.5 131.5l47 -37q-70 -97 -183 -148.5t-251 -51.5q-143 0 -263 70.5t-188.5 191.5t-68.5 264zM150 557h909q-14 181 -141.5 299.5 t-315.5 118.5q-182 0 -307.5 -118.5t-144.5 -299.5zM420 1362q0 17 13 30t32 13t32 -13t13 -30t-13 -30t-32 -13t-32 13t-13 30zM692 1362q0 19 13.5 31t33.5 12q18 0 30.5 -12.5t12.5 -30.5q0 -17 -13 -30t-30 -13q-20 0 -33.5 12.5t-13.5 30.5z" />
<glyph unicode="&#xec;" horiz-adv-x="342" d="M-20 1460h63l170 -256h-59zM137 0v1014h68v-1014h-68z" />
<glyph unicode="&#xed;" horiz-adv-x="342" d="M137 0v1014h68v-1014h-68zM152 1204l155 256h64l-160 -256h-59z" />
<glyph unicode="&#xee;" horiz-adv-x="342" d="M-70 1204l217 254h66l217 -254h-63l-187 217l-186 -217h-64zM137 0v1014h68v-1014h-68z" />
<glyph unicode="&#xef;" horiz-adv-x="342" d="M0 1331q0 17 13 30t32 13t32 -13t13 -30t-13 -30t-32 -13t-32 13t-13 30zM137 0v1014h68v-1014h-68zM272 1331q0 19 13.5 31t33.5 12q18 0 30.5 -12.5t12.5 -30.5q0 -17 -13 -30t-30 -13q-20 0 -33.5 12.5t-13.5 30.5z" />
<glyph unicode="&#xf0;" horiz-adv-x="1185" d="M23 1475v61q126 0 264 -23l71 140l52 -25l-70 -131q359 -86 561.5 -346.5t202.5 -636.5q0 -224 -148.5 -375t-363.5 -151q-140 0 -257.5 69t-185 188t-67.5 259q0 141 67.5 260t185 187.5t257.5 68.5q136 0 248.5 -69.5t171.5 -186.5q-55 266 -239 444.5t-460 235.5 l-75 -146l-50 25l70 133q-119 22 -235 19zM147 504q0 -187 128.5 -319t316.5 -132q186 0 315 132t129 319q0 188 -128.5 321t-315.5 133q-124 0 -226.5 -61t-160.5 -165t-58 -228z" />
<glyph unicode="&#xf1;" horiz-adv-x="1142" d="M145 0v1014h68v-248q47 123 148.5 190.5t240.5 67.5q85 0 158.5 -29.5t132 -89t92 -159t33.5 -228.5v-518h-68v514q0 119 -30 208.5t-81.5 140.5t-112.5 75.5t-130 24.5q-174 0 -278.5 -118t-104.5 -333v-512h-68zM373 1343l26 35q34 -51 95 -51q38 0 92 28.5t92 28.5 q74 0 123 -63l-27 -37q-45 51 -98 51q-32 0 -87 -28.5t-95 -28.5q-38 0 -71 18t-50 47z" />
<glyph unicode="&#xf2;" horiz-adv-x="1214" d="M84 506q0 145 69.5 267t189.5 192.5t263 70.5q145 0 265.5 -70.5t189.5 -192.5t69 -267q0 -144 -69 -265.5t-189.5 -192.5t-265.5 -71q-107 0 -204 42t-166.5 113t-110.5 169t-41 205zM154 506q0 -193 130.5 -328t321.5 -135q192 0 323.5 135t131.5 328q0 194 -131 329.5 t-324 135.5q-191 0 -321.5 -135.5t-130.5 -329.5zM403 1460h64l170 -256h-59z" />
<glyph unicode="&#xf3;" horiz-adv-x="1214" d="M84 506q0 145 69.5 267t189.5 192.5t263 70.5q145 0 265.5 -70.5t189.5 -192.5t69 -267q0 -144 -69 -265.5t-189.5 -192.5t-265.5 -71q-107 0 -204 42t-166.5 113t-110.5 169t-41 205zM154 506q0 -193 130.5 -328t321.5 -135q192 0 323.5 135t131.5 328q0 194 -131 329.5 t-324 135.5q-191 0 -321.5 -135.5t-130.5 -329.5zM578 1204l155 256h64l-160 -256h-59z" />
<glyph unicode="&#xf4;" horiz-adv-x="1214" d="M84 506q0 145 69.5 267t189.5 192.5t263 70.5q145 0 265.5 -70.5t189.5 -192.5t69 -267q0 -144 -69 -265.5t-189.5 -192.5t-265.5 -71q-107 0 -204 42t-166.5 113t-110.5 169t-41 205zM154 506q0 -193 130.5 -328t321.5 -135q192 0 323.5 135t131.5 328q0 194 -131 329.5 t-324 135.5q-191 0 -321.5 -135.5t-130.5 -329.5zM356 1204l217 254h66l217 -254h-63l-187 217l-186 -217h-64z" />
<glyph unicode="&#xf5;" horiz-adv-x="1214" d="M84 506q0 145 69.5 267t189.5 192.5t263 70.5q145 0 265.5 -70.5t189.5 -192.5t69 -267q0 -144 -69 -265.5t-189.5 -192.5t-265.5 -71q-107 0 -204 42t-166.5 113t-110.5 169t-41 205zM154 506q0 -193 130.5 -328t321.5 -135q192 0 323.5 135t131.5 328q0 194 -131 329.5 t-324 135.5q-191 0 -321.5 -135.5t-130.5 -329.5zM391 1343l27 35q34 -51 94 -51q38 0 92 28.5t92 28.5q74 0 123 -63l-26 -37q-45 51 -99 51q-32 0 -87 -28.5t-95 -28.5q-38 0 -71 18t-50 47z" />
<glyph unicode="&#xf6;" horiz-adv-x="1214" d="M84 506q0 145 69.5 267t189.5 192.5t263 70.5q145 0 265.5 -70.5t189.5 -192.5t69 -267q0 -144 -69 -265.5t-189.5 -192.5t-265.5 -71q-107 0 -204 42t-166.5 113t-110.5 169t-41 205zM154 506q0 -193 130.5 -328t321.5 -135q192 0 323.5 135t131.5 328q0 194 -131 329.5 t-324 135.5q-191 0 -321.5 -135.5t-130.5 -329.5zM424 1331q0 17 13 30t32 13t32 -13t13 -30t-13 -30t-32 -13t-32 13t-13 30zM696 1331q0 19 13.5 31t33.5 12q18 0 30.5 -12.5t12.5 -30.5q0 -17 -13 -30t-30 -13q-20 0 -33.5 12.5t-13.5 30.5z" />
<glyph unicode="&#xf7;" horiz-adv-x="952" d="M80 659v64h792v-64h-792zM408 369q0 28 20.5 48.5t48.5 20.5t49 -20.5t21 -48.5q0 -29 -21 -49.5t-49 -20.5t-48.5 20.5t-20.5 49.5zM408 1014q0 29 20.5 49t48.5 20t49 -20t21 -49q0 -28 -21 -49t-49 -21t-48.5 21t-20.5 49z" />
<glyph unicode="&#xf8;" horiz-adv-x="1210" d="M84 506q0 145 69.5 267t189.5 192.5t263 70.5q116 0 209 -43l64 131h47l-72 -149q126 -67 201 -192t75 -277q0 -144 -69 -265.5t-189.5 -192.5t-265.5 -71q-111 0 -211 46l-71 -148h-48l80 166q-125 68 -198.5 192t-73.5 273zM154 506q0 -129 63 -238t168 -168l401 834 q-81 37 -180 37q-191 0 -321.5 -135.5t-130.5 -329.5zM424 82q86 -39 182 -39q192 0 323.5 135t131.5 328q0 131 -64 240t-172 169z" />
<glyph unicode="&#xf9;" horiz-adv-x="1142" d="M125 496v518h68v-514q0 -119 30 -208.5t81.5 -140.5t112.5 -75.5t130 -24.5q174 0 278.5 118t104.5 333v512h67v-1014h-67v240h-4q-48 -118 -148.5 -184t-236.5 -66q-85 0 -158.5 29.5t-132 89t-92 159t-33.5 228.5zM358 1483h64l170 -256h-60z" />
<glyph unicode="&#xfa;" horiz-adv-x="1142" d="M125 496v518h68v-514q0 -119 30 -208.5t81.5 -140.5t112.5 -75.5t130 -24.5q174 0 278.5 118t104.5 333v512h67v-1014h-67v240h-4q-48 -118 -148.5 -184t-236.5 -66q-85 0 -158.5 29.5t-132 89t-92 159t-33.5 228.5zM530 1227l156 256h64l-160 -256h-60z" />
<glyph unicode="&#xfb;" horiz-adv-x="1142" d="M125 496v518h68v-514q0 -119 30 -208.5t81.5 -140.5t112.5 -75.5t130 -24.5q174 0 278.5 118t104.5 333v512h67v-1014h-67v240h-4q-48 -118 -148.5 -184t-236.5 -66q-85 0 -158.5 29.5t-132 89t-92 159t-33.5 228.5zM309 1227l217 254h66l217 -254h-64l-186 217 l-186 -217h-64z" />
<glyph unicode="&#xfc;" horiz-adv-x="1142" d="M125 496v518h68v-514q0 -119 30 -208.5t81.5 -140.5t112.5 -75.5t130 -24.5q174 0 278.5 118t104.5 333v512h67v-1014h-67v240h-4q-48 -118 -148.5 -184t-236.5 -66q-85 0 -158.5 29.5t-132 89t-92 159t-33.5 228.5zM379 1354q0 17 13 30t32 13t32 -13t13 -30t-13 -30 t-32 -13t-32 13t-13 30zM651 1354q0 19 13.5 31t33.5 12q18 0 30.5 -12.5t12.5 -30.5q0 -17 -13 -30t-30 -13q-20 0 -33.5 12.5t-13.5 30.5z" />
<glyph unicode="&#xfd;" horiz-adv-x="1013" d="M27 1014h71l420 -957l400 957h71l-532 -1262q-34 -81 -75.5 -134.5t-89 -80.5t-92.5 -37.5t-102 -11.5l8 66q97 2 167 49t118 161l92 220zM479 1231l156 256h63l-159 -256h-60z" />
<glyph unicode="&#xfe;" d="M145 -512v2048h68v-807q57 133 178.5 214t278.5 81q140 0 256.5 -68.5t183 -187.5t66.5 -262q0 -142 -66.5 -260.5t-183 -187t-256.5 -68.5q-156 0 -278 81.5t-179 213.5v-797h-68zM213 506q0 -190 129 -322.5t317 -132.5q189 0 318 132.5t129 322.5t-129 323.5 t-318 133.5q-188 0 -317 -133.5t-129 -323.5z" />
<glyph unicode="&#xff;" horiz-adv-x="1013" d="M27 1014h71l420 -957l400 957h71l-532 -1262q-34 -81 -75.5 -134.5t-89 -80.5t-92.5 -37.5t-102 -11.5l8 66q97 2 167 49t118 161l92 220zM326 1358q0 17 13 30t32 13t32 -13t13 -30t-13 -30t-32 -13t-32 13t-13 30zM598 1358q0 19 13.5 31t33.5 12q18 0 30.5 -12.5 t12.5 -30.5q0 -17 -13 -30t-30 -13q-20 0 -33.5 12.5t-13.5 30.5z" />
<glyph unicode="&#x152;" horiz-adv-x="1892" d="M92 717q0 155 52 284.5t152 226.5t256.5 151.5t354.5 54.5h901v-66h-831v-616h795v-66h-795v-620h831v-66h-901q-198 0 -354.5 54.5t-256.5 151.5t-152 226.5t-52 284.5zM162 717q0 -139 47 -256t137.5 -205t234 -137t326.5 -49v1294q-183 0 -326.5 -49t-234 -137 t-137.5 -205t-47 -256z" />
<glyph unicode="&#x153;" horiz-adv-x="2166" d="M82 506q0 221 151 374.5t369 153.5q169 0 302 -94.5t188 -247.5q55 153 187 247.5t302 94.5q151 0 272.5 -70t188.5 -193t61 -273h-979q3 -194 135 -325.5t324 -131.5q123 0 223 45.5t162 128.5l47 -35q-70 -96 -183.5 -148t-250.5 -52q-168 0 -300 95.5t-187 248.5 q-56 -153 -189.5 -248.5t-302.5 -95.5q-143 0 -263 70.5t-188.5 191.5t-68.5 264zM150 506q0 -193 130.5 -327t321.5 -134q127 0 232 61.5t165 167.5t60 232t-60 232.5t-165 168.5t-232 62q-191 0 -321.5 -135t-130.5 -328zM1126 547h916q-11 184 -141 306t-320 122 q-184 0 -312.5 -122.5t-142.5 -305.5z" />
<glyph unicode="&#x178;" horiz-adv-x="1169" d="M23 1434h81l482 -781l481 781h80l-526 -850v-584h-70v580zM408 1751q0 17 13 30t32 13t32 -13t13 -30t-13 -30t-32 -13t-32 13t-13 30zM680 1751q0 19 13.5 31t33.5 12q18 0 30.5 -12.5t12.5 -30.5q0 -17 -13 -30t-30 -13q-20 0 -33.5 12.5t-13.5 30.5z" />
<glyph unicode="&#x2c6;" horiz-adv-x="376" d="M0 1204l217 254h66l217 -254h-64l-186 217l-187 -217h-63z" />
<glyph unicode="&#x2dc;" horiz-adv-x="407" d="M12 1343l27 35q34 -51 94 -51q38 0 92 28.5t92 28.5q72 0 125 -63l-28 -37q-42 51 -97 51q-33 0 -88.5 -28.5t-95.5 -28.5q-38 0 -71 18t-50 47z" />
<glyph unicode="&#x2000;" horiz-adv-x="941" />
<glyph unicode="&#x2001;" horiz-adv-x="1882" />
<glyph unicode="&#x2002;" horiz-adv-x="941" />
<glyph unicode="&#x2003;" horiz-adv-x="1882" />
<glyph unicode="&#x2004;" horiz-adv-x="627" />
<glyph unicode="&#x2005;" horiz-adv-x="470" />
<glyph unicode="&#x2006;" horiz-adv-x="313" />
<glyph unicode="&#x2007;" horiz-adv-x="313" />
<glyph unicode="&#x2008;" horiz-adv-x="235" />
<glyph unicode="&#x2009;" horiz-adv-x="376" />
<glyph unicode="&#x200a;" horiz-adv-x="104" />
<glyph unicode="&#x2010;" horiz-adv-x="862" d="M61 526v64h740v-64h-740z" />
<glyph unicode="&#x2011;" horiz-adv-x="862" d="M61 526v64h740v-64h-740z" />
<glyph unicode="&#x2012;" horiz-adv-x="862" d="M61 526v64h740v-64h-740z" />
<glyph unicode="&#x2013;" horiz-adv-x="952" d="M61 526v64h830v-64h-830z" />
<glyph unicode="&#x2014;" horiz-adv-x="1339" d="M61 526v64h1217v-64h-1217z" />
<glyph unicode="&#x2018;" horiz-adv-x="258" d="M61 1040l78 394h58l-76 -394h-60z" />
<glyph unicode="&#x2019;" horiz-adv-x="258" d="M61 1040l76 394h60l-78 -394h-58z" />
<glyph unicode="&#x201a;" horiz-adv-x="264" d="M61 -309l76 393h66l-78 -393h-64z" />
<glyph unicode="&#x201c;" horiz-adv-x="466" d="M61 1040l78 394h58l-76 -394h-60zM268 1040l80 394h58l-76 -394h-62z" />
<glyph unicode="&#x201d;" horiz-adv-x="466" d="M61 1040l76 394h60l-78 -394h-58zM268 1040l76 394h62l-80 -394h-58z" />
<glyph unicode="&#x201e;" horiz-adv-x="477" d="M61 -309l76 393h66l-78 -393h-64zM272 -309l76 393h68l-80 -393h-64z" />
<glyph unicode="&#x2022;" horiz-adv-x="303" d="M61 502q0 37 26.5 62.5t64.5 25.5t64 -25.5t26 -62.5q0 -38 -26 -64t-64 -26t-64.5 26t-26.5 64z" />
<glyph unicode="&#x2026;" horiz-adv-x="1075" d="M61 49q0 23 17.5 40t40.5 17q25 0 42 -17t17 -40q0 -25 -17 -41t-42 -16q-24 0 -41 16.5t-17 40.5zM479 49q0 23 17.5 40t40.5 17q25 0 42 -17t17 -40q0 -25 -17 -41t-42 -16q-24 0 -41 16.5t-17 40.5zM897 49q0 23 17 40t40 17q25 0 42.5 -17t17.5 -40 q0 -24 -17.5 -40.5t-42.5 -16.5q-24 0 -40.5 16.5t-16.5 40.5z" />
<glyph unicode="&#x202f;" horiz-adv-x="376" />
<glyph unicode="&#x2039;" horiz-adv-x="528" d="M82 575l348 318l39 -37l-307 -281l307 -280l-37 -41z" />
<glyph unicode="&#x203a;" horiz-adv-x="528" d="M59 856l39 37l348 -318l-350 -321l-35 41l308 280z" />
<glyph unicode="&#x205f;" horiz-adv-x="470" />
<glyph unicode="&#x20ac;" horiz-adv-x="1636" d="M80 598v45h123q-4 50 -4 74q0 21 4 71h-123v46h127q20 131 82 245.5t154.5 197t215.5 130t259 47.5q207 0 375 -106t259 -283l-61 -33q-84 161 -235.5 256.5t-337.5 95.5q-121 0 -230.5 -42.5t-192 -116t-139 -174.5t-75.5 -217h645v-46h-652q-4 -50 -4 -71q0 -24 4 -74 h652v-45h-645q40 -237 218 -393t419 -156q188 0 341 98t234 261l63 -33q-91 -179 -260.5 -287t-377.5 -108q-180 0 -333.5 81.5t-252 222t-125.5 314.5h-127z" />
<glyph unicode="&#x2122;" horiz-adv-x="946" d="M61 1313v20h345v-20h-162v-424h-21v424h-162zM446 889v444h25l195 -348l192 348h27v-444h-23v407l-188 -335h-19l-188 333v-405h-21z" />
<glyph unicode="&#x25fc;" horiz-adv-x="1013" d="M0 0v1014h1014v-1014h-1014z" />
<glyph unicode="&#xfb01;" horiz-adv-x="956" d="M51 952v62h242v112q0 98 23 173.5t58 119.5t84 72t93.5 37.5t93.5 9.5q76 0 166 -20l-12 -64q-74 19 -150 19q-40 0 -76 -7.5t-76.5 -30.5t-69.5 -59.5t-48 -100t-19 -147.5v-114h476v-1014h-68v952h-408v-952h-67v952h-242z" />
<glyph unicode="&#xfb02;" horiz-adv-x="1116" d="M51 952v62h242v205q0 72 19.5 129t50 91.5t71 57.5t79 32t77.5 9q74 0 131 -19.5t117 -68.5v-1221q0 -83 38 -126.5t107 -43.5q26 0 80 15l10 -62q-59 -16 -104 -16q-93 0 -146 59t-53 168v1200q-79 52 -178 52q-38 0 -75.5 -12.5t-74.5 -39.5t-59.5 -79t-22.5 -123v-207 h240v-62h-240v-952h-67v952h-242z" />
<glyph unicode="&#xfb03;" horiz-adv-x="1431" d="M51 952v62h242v112q0 98 23.5 173.5t59 119.5t84.5 72t94 37.5t93 9.5q138 0 244 -76q88 76 225 76q74 0 164 -20l-12 -64q-78 19 -146 19q-40 0 -75.5 -7.5t-75 -30.5t-68 -59.5t-47 -100t-18.5 -147.5v-114h473v-1014h-66v952h-407v-952h-68v952h-410v-952h-67v952 h-242zM360 1014h410v112q0 185 80 285q-91 62 -197 62q-40 0 -76.5 -7.5t-77.5 -30.5t-70.5 -59.5t-49 -100.5t-19.5 -147v-114z" />
</font>
</defs>
</svg>
